<svg width="16" height="15" viewBox="0 0 16 15" fill="none" xmlns="http://www.w3.org/2000/svg">
<path d="M5.80225 14.5928C6.30029 14.5928 6.69043 14.3936 6.96436 13.9868L14.7339 2.00049C14.9331 1.70166 15.0161 1.42773 15.0161 1.17041C15.0161 0.489746 14.5181 0 13.8208 0C13.3394 0 13.0488 0.166016 12.7583 0.630859L5.76904 11.6875L2.19971 7.18848C1.91748 6.84814 1.62695 6.69043 1.21191 6.69043C0.506348 6.69043 0 7.18848 0 7.87744C0 8.17627 0.0996094 8.4585 0.356934 8.75732L4.64844 14.0283C4.97217 14.4185 5.3291 14.5928 5.80225 14.5928Z" fill="#D89972"/>
<path d="M5.80225 14.5928C6.30029 14.5928 6.69043 14.3936 6.96436 13.9868L14.7339 2.00049C14.9331 1.70166 15.0161 1.42773 15.0161 1.17041C15.0161 0.489746 14.5181 0 13.8208 0C13.3394 0 13.0488 0.166016 12.7583 0.630859L5.76904 11.6875L2.19971 7.18848C1.91748 6.84814 1.62695 6.69043 1.21191 6.69043C0.506348 6.69043 0 7.18848 0 7.87744C0 8.17627 0.0996094 8.4585 0.356934 8.75732L4.64844 14.0283C4.97217 14.4185 5.3291 14.5928 5.80225 14.5928Z" fill="#E3B687"/>
</svg>
