<svg width="24" height="24" viewBox="0 0 24 24" fill="none" xmlns="http://www.w3.org/2000/svg">
<path d="M0 12C0 18.6274 5.37258 24 12 24C18.6274 24 24 18.6274 24 12C24 5.37258 18.6274 0 12 0C5.37258 0 0 5.37258 0 12Z" fill="black"/>
<g clip-path="url(#clip0_22_417)">
<path d="M14.924 17.0207C14.2736 17.6519 13.556 17.5535 12.872 17.2559C12.1448 16.9523 11.48 16.9331 10.712 17.2559C9.75558 17.6687 9.24798 17.5487 8.67198 17.0207C5.41999 13.6727 5.89999 8.57269 9.59598 8.38069C10.4924 8.42869 11.12 8.87629 11.648 8.91349C12.4328 8.75389 13.184 8.29669 14.024 8.35669C15.0332 8.43829 15.788 8.83669 16.292 9.55309C14.216 10.8011 14.708 13.5371 16.6148 14.3051C16.2332 15.3071 15.7436 16.2971 14.9228 17.0291L14.924 17.0207ZM11.576 8.34469C11.4788 6.85669 12.6848 5.6327 14.072 5.5127C14.2628 7.22869 12.512 8.51269 11.576 8.34469Z" fill="white"/>
</g>
<defs>
<clipPath id="clip0_22_417">
<rect width="10.104" height="12" fill="white" transform="translate(6.5 5.5)"/>
</clipPath>
</defs>
</svg>
