<svg width="23" height="23" viewBox="0 0 23 23" fill="none" xmlns="http://www.w3.org/2000/svg">
<path d="M11.6674 22.3348C17.5589 22.3348 22.3348 17.5589 22.3348 11.6674C22.3348 5.77596 17.5589 1 11.6674 1C5.77596 1 1 5.77596 1 11.6674C1 17.5589 5.77596 22.3348 11.6674 22.3348Z" fill="#C7C4BD" stroke="#C7C4BD" stroke-width="1.2" stroke-miterlimit="10"/>
<path d="M22.2129 13.3031C22.2536 13.039 16.7471 11.5557 16.7471 13.232C16.7471 13.9635 15.7414 14.4004 16.0157 15.4366C16.3509 16.7472 18.2203 16.8488 18.2203 17.6412C18.2203 18.647 16.6049 19.8357 18.2812 20.0389C18.2711 20.049 21.5627 17.7631 22.2129 13.3031Z" fill="#FCFCFC" stroke="#C7C4BD" stroke-width="0.85351" stroke-miterlimit="10"/>
<path d="M20.9636 6.43574C20.9433 6.26303 19.1958 7.53296 17.804 7.97998C16.9303 8.26444 17.3468 6.75069 16.2699 5.67378C15.3657 4.76959 15.1422 3.27616 15.5181 1.72176C15.5181 1.7116 19.0841 2.63611 20.9636 6.43574Z" fill="#FCFCFC" stroke="#C7C4BD" stroke-width="0.892687" stroke-miterlimit="10"/>
<path d="M10.4991 15.2129C9.66605 18.342 10.1537 19.3681 9.54414 19.3681C6.76045 19.3681 5.07398 14.4002 4.7184 13.2928C3.40783 9.24933 2.1379 7.90828 1.79248 7.63398C1.79248 7.63398 2.79827 3.81403 7.42081 1.76182C8.18277 1.42656 9.74732 1.55863 10.682 3.41781C11.2001 4.45407 9.15808 6.78059 7.17699 8.0302C5.58195 9.03598 7.36979 19.5307 8.6702 19.3681C9.02578 19.3173 11.5862 10.9866 12.1551 12.1245C13.0593 13.9938 11.1493 12.8051 10.4991 15.2129Z" fill="#FCFCFC" stroke="#C7C4BD" stroke-width="1.07736" stroke-miterlimit="10"/>
</svg>
