<svg width="18" height="18" viewBox="0 0 18 18" fill="none" xmlns="http://www.w3.org/2000/svg">
<path d="M14.1664 7.39268L4.3876 17.1529C4.25989 17.2804 4.10482 17.3623 3.92238 17.3987L1.09456 17.9814C0.456017 18.1089 -0.109547 17.5444 0.0181613 16.9071L0.601969 14.0846C0.638457 13.9116 0.720556 13.7477 0.848264 13.6203L10.6271 3.86006C10.9828 3.50498 11.5575 3.50498 11.9133 3.86006L14.1573 6.09981C14.5222 6.464 14.5222 7.03759 14.1664 7.39268Z" fill="#362614"/>
<path d="M17.7602 3.80575L15.9631 5.59937L12.4512 2.03944L14.2482 0.245826C14.5766 -0.0819421 15.1057 -0.0819421 15.4249 0.245826L17.7602 2.62215C18.0795 2.95902 18.0795 3.48709 17.7602 3.80575Z" fill="#362614"/>
</svg>
