<svg width="24" height="24" viewBox="0 0 24 24" fill="none" xmlns="http://www.w3.org/2000/svg">
<path d="M5 7C4.44772 7 4 7.44772 4 8C4 8.55228 4.44772 9 5 9H12C12.5523 9 13 8.55228 13 8C13 7.44772 12.5523 7 12 7H5ZM9 13C8.44772 13 8 13.4477 8 14V15H5C4.44772 15 4 15.4477 4 16C4 16.5523 4.44772 17 5 17H8V18C8 18.5523 8.44772 19 9 19C9.55228 19 10 18.5523 10 18V14C10 13.4477 9.55228 13 9 13ZM19.5 17C20.0523 17 20.5 16.5523 20.5 16C20.5 15.4477 20.0523 15 19.5 15H12.5C11.9477 15 11.5 15.4477 11.5 16C11.5 16.5523 11.9477 17 12.5 17H19.5ZM14.5 11C14.5 11.5523 14.9477 12 15.5 12C16.0523 12 16.5 11.5523 16.5 11V9H19.5C20.0523 9 20.5 8.55228 20.5 8C20.5 7.44772 20.0523 7 19.5 7H16.5V6C16.5 5.44772 16.0523 5 15.5 5C14.9477 5 14.5 5.44772 14.5 6V11Z" fill="#362614"/>
</svg>
