<svg width="15" height="20" viewBox="0 0 15 20" fill="none" xmlns="http://www.w3.org/2000/svg">
<path d="M9.37498 0C5.11277 2.4558 5.62498 9.37499 5.62498 9.37499C5.62498 9.37499 3.75 8.74999 3.75 5.93751C1.51301 7.23465 0 9.72785 0 12.5C0 16.6421 3.35786 20 7.5 20C11.6421 20 15 16.6421 15 12.5C15 6.40626 9.37498 5.15624 9.37498 0V0ZM8.15879 17.4157C6.65169 17.7915 5.12526 16.8744 4.74943 15.3672C4.37368 13.8601 5.2908 12.3336 6.79799 11.9578C10.4366 11.0506 10.8926 9.00446 10.8926 9.00446C10.8926 9.00446 12.7071 16.2817 8.15879 17.4157V17.4157Z" fill="white"/>
</svg>
