<svg width="56" height="56" viewBox="0 0 56 56" fill="none" xmlns="http://www.w3.org/2000/svg">
<circle cx="28" cy="28" r="28" fill="white"/>
<path d="M39.759 27.3488C39.7592 27.0666 39.6494 26.8013 39.4499 26.6018C39.0404 26.1924 38.3725 26.1907 37.9609 26.598C37.7358 26.8163 33.8906 30.6501 33.5541 30.9847C33.2249 31.3125 32.6921 31.3115 32.3642 30.9824C32.0362 30.6532 32.0373 30.1205 32.3665 29.7925C34.4005 27.7647 37.6467 24.5317 39.6823 22.5041C39.8828 22.3046 39.9932 22.0394 39.9935 21.757C39.9939 21.4745 39.8841 21.209 39.6843 21.0093L39.6553 20.9802C39.2447 20.5697 38.5758 20.5689 38.1642 20.9785C36.833 22.3025 32.968 26.1525 31.5919 27.5233C31.2627 27.8512 30.7301 27.8502 30.4021 27.521C30.0742 27.1919 30.075 26.6592 30.4041 26.3313C32.5055 24.2348 35.3935 21.3625 37.4879 19.2754C37.6881 19.0761 37.7985 18.8108 37.7989 18.5284C37.7992 18.246 37.6894 17.9805 37.4897 17.7809L37.454 17.7451C37.2546 17.5458 36.9895 17.436 36.7076 17.436C36.4256 17.436 36.1606 17.5457 35.9612 17.7451L28.8945 24.8117C28.566 25.1402 28.0332 25.1402 27.7046 24.8117C27.376 24.4831 27.376 23.9504 27.7046 23.6218L33.5025 17.8239C33.7019 17.6245 33.8116 17.3595 33.8116 17.0775C33.8116 16.7956 33.7019 16.5305 33.5025 16.3312L33.4789 16.3075C33.0681 15.8968 32.3984 15.8966 31.9868 16.3083L22.5517 25.7435C22.285 26.0102 21.8736 26.0668 21.5448 25.8823C21.2161 25.6978 21.0502 25.317 21.139 24.9506L22.7527 18.2865C22.91 17.637 22.5551 16.9746 21.9271 16.7458C21.779 16.6919 21.6268 16.665 21.4756 16.665C21.2608 16.665 21.048 16.7191 20.8513 16.8262C20.5161 17.0086 20.2847 17.314 20.1998 17.6861L20.0752 18.2322C19.4466 20.9857 18.4104 23.7472 16.9953 26.44C16.1493 28.0497 15.8272 29.9332 16.0884 31.7435C16.3583 33.6145 17.2098 35.3123 18.5507 36.6532C20.1966 38.2991 22.3845 39.2053 24.7118 39.2053H24.7177C27.0473 39.2038 29.2363 38.2945 30.8814 36.645L32.9783 34.5426L39.4495 28.095C39.6488 27.8961 39.7589 27.6309 39.759 27.3488Z" fill="#E3B687"/>
<path d="M37.7155 34.2881C37.8683 33.9312 37.7028 33.5178 37.3458 33.3651C36.9888 33.2122 36.5755 33.3777 36.4227 33.7347C36.1868 34.2857 35.8502 34.7821 35.4221 35.2102C34.8991 35.7331 34.2812 36.116 33.5854 36.348C33.217 36.4709 33.0179 36.8691 33.1408 37.2375C33.2391 37.5321 33.5134 37.7184 33.8077 37.7184C33.8815 37.7184 33.9565 37.7067 34.0303 37.6821C34.935 37.3803 35.7379 36.8833 36.4165 36.2046C36.9717 35.6492 37.4088 35.0045 37.7155 34.2881Z" fill="#E3B687"/>
<path d="M39.5736 34.6762C39.2167 34.5232 38.8033 34.6884 38.6503 35.0454C38.3218 35.8118 37.8533 36.5022 37.2579 37.0976C36.5655 37.79 35.751 38.3073 34.8371 38.6349C34.4716 38.766 34.2815 39.1685 34.4125 39.5341C34.5155 39.8213 34.786 40.0001 35.0745 40.0001C35.1532 40.0001 35.2333 39.9868 35.3117 39.9586C36.4226 39.5604 37.4119 38.9323 38.2523 38.0919C38.9747 37.3695 39.5435 36.531 39.9428 35.5995C40.0958 35.2425 39.9305 34.8292 39.5736 34.6762Z" fill="#E3B687"/>
</svg>
