<svg width="20" height="20" viewBox="0 0 20 20" fill="none" xmlns="http://www.w3.org/2000/svg">
<g clip-path="url(#clip0_22_1088)">
<path d="M2.54362 19.1315H4.56799C4.97063 19.1315 5.34708 19.5543 5.74971 19.5543H11.9413C12.3441 19.5543 12.7206 19.1315 13.1233 19.1315H15.1474C15.2985 19.1315 15.4402 19.0913 15.5624 19.0211C15.9815 18.7802 15.5891 18.2979 15.1057 18.2979H2.58619C2.1028 18.2979 1.71036 18.7802 2.1294 19.0212C2.25141 19.0913 2.39285 19.1315 2.54362 19.1315Z" fill="#D89972"/>
<path d="M2.54362 19.1315H4.56799C4.97063 19.1315 5.34708 19.5543 5.74971 19.5543H11.9413C12.3441 19.5543 12.7206 19.1315 13.1233 19.1315H15.1474C15.2985 19.1315 15.4402 19.0913 15.5624 19.0211C15.9815 18.7802 15.5891 18.2979 15.1057 18.2979H2.58619C2.1028 18.2979 1.71036 18.7802 2.1294 19.0212C2.25141 19.0913 2.39285 19.1315 2.54362 19.1315Z" fill="#E3B687"/>
<path d="M19.2615 10.5638C18.5673 10.0016 17.5897 9.99235 16.9462 10.0634C16.9777 9.2991 16.3547 8.67871 15.5897 8.67871H1.75051C0.783729 8.67871 -0.010454 9.46387 0.043321 10.4292C0.248132 14.1056 1.27488 16.7404 5.08747 17.8123H11.8874C13.6275 17.324 14.7814 16.5033 15.5467 15.4122C17.2139 15.3798 19.8957 14.7235 19.9963 12.4212C20.0397 11.4131 19.6206 10.8536 19.2615 10.5638ZM16.2456 14.0957C16.565 13.2751 16.7542 12.3519 16.8585 11.3374C17.309 11.2635 18.0854 11.2164 18.4777 11.5359C18.5497 11.5949 18.7741 11.7777 18.7482 12.3676C18.6956 13.5603 17.2149 13.961 16.2456 14.0957Z" fill="#D89972"/>
<path d="M19.2615 10.5638C18.5673 10.0016 17.5897 9.99235 16.9462 10.0634C16.9777 9.2991 16.3547 8.67871 15.5897 8.67871H1.75051C0.783729 8.67871 -0.010454 9.46387 0.043321 10.4292C0.248132 14.1056 1.27488 16.7404 5.08747 17.8123H11.8874C13.6275 17.324 14.7814 16.5033 15.5467 15.4122C17.2139 15.3798 19.8957 14.7235 19.9963 12.4212C20.0397 11.4131 19.6206 10.8536 19.2615 10.5638ZM16.2456 14.0957C16.565 13.2751 16.7542 12.3519 16.8585 11.3374C17.309 11.2635 18.0854 11.2164 18.4777 11.5359C18.5497 11.5949 18.7741 11.7777 18.7482 12.3676C18.6956 13.5603 17.2149 13.961 16.2456 14.0957Z" fill="#E3B687"/>
<path d="M7.25374 7.76317C7.18925 7.83372 7.25126 7.98695 7.34466 7.96664C8.16975 7.78727 9.80042 7.15982 8.66611 5.07295C7.56963 3.05619 7.71511 1.80802 8.93749 0.716659C9.00861 0.65317 8.95197 0.541549 8.86239 0.574174C7.73469 0.984909 4.8085 2.41799 7.19277 5.64068C7.88199 6.74701 7.56446 7.42326 7.25374 7.76317Z" fill="#D89972"/>
<path d="M7.25374 7.76317C7.18925 7.83372 7.25126 7.98695 7.34466 7.96664C8.16975 7.78727 9.80042 7.15982 8.66611 5.07295C7.56963 3.05619 7.71511 1.80802 8.93749 0.716659C9.00861 0.65317 8.95197 0.541549 8.86239 0.574174C7.73469 0.984909 4.8085 2.41799 7.19277 5.64068C7.88199 6.74701 7.56446 7.42326 7.25374 7.76317Z" fill="#E3B687"/>
<path d="M9.42398 7.54333C9.35641 7.61059 9.4128 7.72264 9.50164 7.68805C10.1683 7.42851 11.3144 6.72922 10.2721 5.18888C10.0283 4.75856 10.061 4.46015 10.1619 4.26566C10.2059 4.18084 10.1296 4.01023 10.0378 4.0368C9.59921 4.16373 9.04193 4.50965 9.50309 5.44829C9.978 6.41914 9.93355 7.03609 9.42398 7.54333Z" fill="#D89972"/>
<path d="M9.42398 7.54333C9.35641 7.61059 9.4128 7.72264 9.50164 7.68805C10.1683 7.42851 11.3144 6.72922 10.2721 5.18888C10.0283 4.75856 10.061 4.46015 10.1619 4.26566C10.2059 4.18084 10.1296 4.01023 10.0378 4.0368C9.59921 4.16373 9.04193 4.50965 9.50309 5.44829C9.978 6.41914 9.93355 7.03609 9.42398 7.54333Z" fill="#E3B687"/>
</g>
<defs>
<clipPath id="clip0_22_1088">
<rect width="19.9991" height="20" fill="white"/>
</clipPath>
</defs>
</svg>
