<svg width="32" height="32" viewBox="0 0 32 32" fill="none" xmlns="http://www.w3.org/2000/svg">
<circle cx="16" cy="16" r="16" fill="#D89972"/>
<circle cx="16" cy="16" r="16" fill="#E3B687"/>
<path fill-rule="evenodd" clip-rule="evenodd" d="M13.417 12.75C13.417 11.3853 14.5569 10.25 16.0003 10.25C17.4438 10.25 18.5837 11.3853 18.5837 12.75C18.5837 13.0952 18.8635 13.375 19.2087 13.375C19.5538 13.375 19.8337 13.0952 19.8337 12.75C19.8337 10.6647 18.1035 9 16.0003 9C13.8971 9 12.167 10.6647 12.167 12.75C12.167 13.0952 12.4468 13.375 12.792 13.375C13.1372 13.375 13.417 13.0952 13.417 12.75ZM19.8182 22H12.1818C10.9764 22 10 20.8985 10 19.5385V16.5888L11.8505 18.8522L11.8509 18.8527C12.4901 19.6382 13.4205 20.0939 14.4075 20.0939H17.5925C18.5795 20.0939 19.5098 19.6382 20.149 18.8527L20.1495 18.8522L22 16.5888V19.5385C22 20.8985 21.0236 22 19.8182 22ZM12.1818 14C11.3208 14 10.5766 14.562 10.2217 15.3788L12.5771 18.2597L12.5778 18.2606C13.0469 18.8372 13.7147 19.1564 14.4075 19.1564H17.5925C18.2853 19.1564 18.9531 18.8372 19.4222 18.2606L19.4229 18.2597L21.7783 15.3788C21.4234 14.562 20.6792 14 19.8182 14H12.1818Z" fill="white"/>
</svg>
