<svg width="24" height="24" viewBox="0 0 24 24" fill="none" xmlns="http://www.w3.org/2000/svg">
<path d="M0 12C0 18.6274 5.37258 24 12 24C18.6274 24 24 18.6274 24 12C24 5.37258 18.6274 0 12 0C5.37258 0 0 5.37258 0 12Z" fill="#E3B687"/>
<path d="M17.8942 8.38379L14.2549 11.9997L17.8942 15.6156C17.96 15.4781 17.9999 15.3261 17.9999 15.1638V8.83564C17.9999 8.67329 17.96 8.5213 17.8942 8.38379Z" fill="white"/>
<path d="M16.9455 7.78125H7.05488C6.89253 7.78125 6.74054 7.82116 6.60303 7.88695L11.2545 12.515C11.6658 12.9263 12.3346 12.9263 12.7459 12.515L17.3974 7.88695C17.2598 7.82116 17.1079 7.78125 16.9455 7.78125Z" fill="white"/>
<path d="M6.1057 8.38379C6.03991 8.5213 6 8.67329 6 8.83564V15.1638C6 15.3261 6.03991 15.4781 6.1057 15.6156L9.74505 11.9997L6.1057 8.38379Z" fill="white"/>
<path d="M13.758 12.4971L13.243 13.0121C12.5577 13.6974 11.4426 13.6974 10.7573 13.0121L10.2424 12.4971L6.60303 16.113C6.74054 16.1788 6.89253 16.2187 7.05488 16.2187H16.9455C17.1079 16.2187 17.2598 16.1788 17.3974 16.113L13.758 12.4971Z" fill="white"/>
</svg>
