<svg width="24" height="24" viewBox="0 0 24 24" fill="none" xmlns="http://www.w3.org/2000/svg">
<g clip-path="url(#clip0_22_386)">
<path d="M20.4835 3.51344C15.7965 -1.17214 8.19853 -1.17101 3.51295 3.51602C-1.17263 8.20305 -1.1715 15.801 3.51553 20.4866C8.20256 25.1722 15.8005 25.171 20.4861 20.484C22.7364 18.233 24.0002 15.1803 23.9995 11.9974C23.9989 8.8151 22.7341 5.76335 20.4835 3.51344ZM18.1731 16.7159C18.1726 16.7164 18.1721 16.717 18.1715 16.7175V16.7135L17.5635 17.3175C16.7772 18.1137 15.632 18.4413 14.5435 18.1815C13.4468 17.8879 12.4043 17.4207 11.4555 16.7975C10.574 16.2341 9.75703 15.5755 9.0195 14.8335C8.34089 14.1598 7.73123 13.4201 7.19948 12.6255C6.61786 11.7704 6.1575 10.8389 5.83148 9.85746C5.45775 8.70452 5.76745 7.43941 6.6315 6.58947L7.34348 5.87749C7.54144 5.67864 7.86309 5.67794 8.06189 5.87589C8.0624 5.87641 8.06297 5.87692 8.06348 5.87749L10.3115 8.12547C10.5103 8.32342 10.511 8.64508 10.3131 8.84388C10.3125 8.84439 10.312 8.84491 10.3115 8.84547L8.99147 10.1655C8.61272 10.5401 8.56509 11.1354 8.87948 11.5655C9.3569 12.2207 9.88523 12.8373 10.4595 13.4095C11.0998 14.0525 11.7958 14.6375 12.5395 15.1575C12.9692 15.4572 13.5517 15.4067 13.9235 15.0375L15.1995 13.7415C15.3974 13.5427 15.7191 13.542 15.9179 13.7399C15.9184 13.7404 15.9189 13.741 15.9195 13.7415L18.1715 15.9975C18.3704 16.1954 18.3711 16.517 18.1731 16.7159Z" fill="#E3B687"/>
</g>
<defs>
<clipPath id="clip0_22_386">
<rect width="24" height="24" fill="white"/>
</clipPath>
</defs>
</svg>
