<svg width="56" height="56" viewBox="0 0 56 56" fill="none" xmlns="http://www.w3.org/2000/svg">
<circle cx="28" cy="28" r="28" fill="white"/>
<path d="M41.9964 28.5482C41.6233 26.3256 40.0564 25.9704 39.3201 25.9285C39.0884 25.9154 38.8731 25.7979 38.746 25.6037C38.2126 24.7895 37.4978 24.5742 36.8905 24.5742C36.4545 24.5742 36.074 24.6853 35.8563 24.7655C35.829 24.7756 35.8009 24.7803 35.7734 24.7803C35.6873 24.7803 35.6049 24.7337 35.5593 24.6554C35.0175 23.7261 34.2473 23.4864 33.597 23.4864C33.2185 23.4863 32.8805 23.5675 32.6517 23.6412C32.628 23.6488 32.6033 23.6524 32.5801 23.6524C32.4557 23.6524 32.3461 23.5504 32.3461 23.4172V18.6385C32.3461 17.5462 31.532 17 30.7127 17C29.8935 17 29.0794 17.5462 29.0794 18.6385V27.0443C29.0794 27.5383 28.6749 27.8437 28.2682 27.8437C28.0213 27.8437 27.7697 27.731 27.606 27.4796L26.8134 26.2638C26.4661 25.6907 25.9611 25.4533 25.4612 25.4533C24.3315 25.4532 23.2249 26.6667 24.0099 27.9622L30.1953 39.7851C30.2358 39.8625 30.3158 39.895 30.4031 39.895H39.0906C39.2145 39.895 39.3172 39.8145 39.3247 39.6907L39.5421 36.158C39.5446 36.1173 39.5581 36.0814 39.5807 36.0472C41.7372 32.7809 42.3546 30.6823 41.9964 28.5482Z" fill="#E3B687"/>
<path d="M17.4864 36.4714V27.9272C17.4864 27.4265 17.8974 27.0204 18.4045 27.0204C18.9114 27.0204 19.3226 27.4265 19.3226 27.9272V36.4288L21.1847 34.6148C21.543 34.2608 22.1372 34.2607 22.4958 34.6149C22.8543 34.969 22.8606 35.5431 22.5021 35.8972L19.0799 39.2804C18.7215 39.6343 18.1418 39.6345 17.7831 39.2803L14.2686 35.8081C13.9101 35.454 13.9106 34.8798 14.2692 34.5257C14.4484 34.3488 14.6836 34.2602 14.9185 34.2602C15.1533 34.2602 15.363 34.3488 15.5423 34.5259L17.4864 36.4714Z" fill="#E3B687"/>
<path d="M17.4864 20.0745V28.6187C17.4864 29.1194 17.8974 29.5255 18.4045 29.5255C18.9114 29.5255 19.3226 29.1194 19.3226 28.6187V20.1171L21.1847 21.9311C21.543 22.2851 22.1372 22.2852 22.4958 21.931C22.8543 21.5769 22.8606 21.0028 22.5021 20.6487L19.0799 17.2655C18.7215 16.9116 18.1418 16.9114 17.7831 17.2656L14.2686 20.7378C13.9101 21.0919 13.9106 21.6661 14.2692 22.0202C14.4484 22.1971 14.6836 22.2857 14.9185 22.2857C15.1533 22.2857 15.363 22.1971 15.5423 22.02L17.4864 20.0745Z" fill="#E3B687"/>
</svg>
