<svg width="24" height="24" viewBox="0 0 24 24" fill="none" xmlns="http://www.w3.org/2000/svg">
<path d="M21.4638 10.846L20.6767 9.97149C20.3269 9.62168 20.152 9.09697 20.2395 8.4848L20.3269 7.34792C20.4144 6.38595 19.8022 5.51143 18.8402 5.24907L17.7034 4.98672C17.1786 4.89926 16.7414 4.54945 16.3916 4.02474L15.7794 2.97532C15.2547 2.10079 14.2053 1.75099 13.3308 2.18825L11.4943 3.06277L9.65777 2.18825C8.78325 1.75099 7.73382 2.10079 7.2091 2.97532L6.59694 4.02474C6.33458 4.462 5.89732 4.81181 5.28516 4.98672L4.14828 5.24907C3.1863 5.42398 2.57414 6.38595 2.66159 7.34792L2.74904 8.4848C2.8365 9.09697 2.66159 9.62168 2.31178 9.97149L1.52471 10.846C0.825096 11.5456 0.825096 12.6825 1.52471 13.3821L2.31178 14.2566C2.66159 14.6939 2.8365 15.2186 2.8365 15.7433L2.74904 16.8802C2.66159 17.8422 3.27376 18.7167 4.23573 18.9791L5.37261 19.2414C5.89732 19.3289 6.33458 19.6787 6.68439 20.2034L7.29656 21.2528C7.82127 22.1273 8.8707 22.4771 9.74522 22.0399L10.7946 21.5152C11.3194 21.2528 11.8441 21.2528 12.3688 21.5152L13.4182 22.0399C14.2927 22.4771 15.3422 22.1273 15.8669 21.2528L16.479 20.2034C16.7414 19.7661 17.1787 19.4163 17.7908 19.2414L18.9277 18.9791C19.8897 18.8042 20.5018 17.8422 20.4144 16.8802L20.2395 15.8308C20.152 15.3061 20.3269 14.7814 20.7642 14.3441L21.5513 13.4696C22.1634 12.77 22.1634 11.6331 21.4638 10.846ZM16.9163 8.22245L10.7946 16.0931C10.6197 16.3555 10.2699 16.5304 10.0076 16.5304H9.92012C9.65777 16.5304 9.39541 16.443 9.13305 16.1806L6.50949 13.557C6.07223 13.1198 6.07223 12.4201 6.50949 11.9829C6.94675 11.5456 7.64636 11.5456 8.08363 11.9829L9.47748 13.3767C9.66586 13.5651 9.97685 13.5452 10.1397 13.3343L15.1673 6.82321C15.6045 6.4734 16.3041 6.38595 16.7414 6.73576C17.2661 7.08557 17.3536 7.78518 16.9163 8.22245Z" fill="#D89972"/>
<path d="M21.4638 10.846L20.6767 9.97149C20.3269 9.62168 20.152 9.09697 20.2395 8.4848L20.3269 7.34792C20.4144 6.38595 19.8022 5.51143 18.8402 5.24907L17.7034 4.98672C17.1786 4.89926 16.7414 4.54945 16.3916 4.02474L15.7794 2.97532C15.2547 2.10079 14.2053 1.75099 13.3308 2.18825L11.4943 3.06277L9.65777 2.18825C8.78325 1.75099 7.73382 2.10079 7.2091 2.97532L6.59694 4.02474C6.33458 4.462 5.89732 4.81181 5.28516 4.98672L4.14828 5.24907C3.1863 5.42398 2.57414 6.38595 2.66159 7.34792L2.74904 8.4848C2.8365 9.09697 2.66159 9.62168 2.31178 9.97149L1.52471 10.846C0.825096 11.5456 0.825096 12.6825 1.52471 13.3821L2.31178 14.2566C2.66159 14.6939 2.8365 15.2186 2.8365 15.7433L2.74904 16.8802C2.66159 17.8422 3.27376 18.7167 4.23573 18.9791L5.37261 19.2414C5.89732 19.3289 6.33458 19.6787 6.68439 20.2034L7.29656 21.2528C7.82127 22.1273 8.8707 22.4771 9.74522 22.0399L10.7946 21.5152C11.3194 21.2528 11.8441 21.2528 12.3688 21.5152L13.4182 22.0399C14.2927 22.4771 15.3422 22.1273 15.8669 21.2528L16.479 20.2034C16.7414 19.7661 17.1787 19.4163 17.7908 19.2414L18.9277 18.9791C19.8897 18.8042 20.5018 17.8422 20.4144 16.8802L20.2395 15.8308C20.152 15.3061 20.3269 14.7814 20.7642 14.3441L21.5513 13.4696C22.1634 12.77 22.1634 11.6331 21.4638 10.846ZM16.9163 8.22245L10.7946 16.0931C10.6197 16.3555 10.2699 16.5304 10.0076 16.5304H9.92012C9.65777 16.5304 9.39541 16.443 9.13305 16.1806L6.50949 13.557C6.07223 13.1198 6.07223 12.4201 6.50949 11.9829C6.94675 11.5456 7.64636 11.5456 8.08363 11.9829L9.47748 13.3767C9.66586 13.5651 9.97685 13.5452 10.1397 13.3343L15.1673 6.82321C15.6045 6.4734 16.3041 6.38595 16.7414 6.73576C17.2661 7.08557 17.3536 7.78518 16.9163 8.22245Z" fill="#E3B687"/>
<path d="M10.3896 18.5699L4.86631 11.3896V10.8373L10.9419 7.52329C12.4148 6.78686 12.7094 3.65699 13.1512 3.65699C13.5931 3.65699 17.9381 6.78686 18.6745 7.52329C18.4904 9.73261 18.1222 14.3722 18.1222 15.2559C18.1222 16.1396 12.9671 17.8334 10.3896 18.5699Z" fill="#D89972"/>
<path d="M10.3896 18.5699L4.86631 11.3896V10.8373L10.9419 7.52329C12.4148 6.78686 12.7094 3.65699 13.1512 3.65699C13.5931 3.65699 17.9381 6.78686 18.6745 7.52329C18.4904 9.73261 18.1222 14.3722 18.1222 15.2559C18.1222 16.1396 12.9671 17.8334 10.3896 18.5699Z" fill="#E3B687"/>
<path d="M10.8043 12.1508C10.3725 12.5841 9.67073 12.584 9.23908 12.1505L8.57137 11.4799C8.19338 11.1002 7.5787 11.1006 7.20117 11.4807C6.82636 11.858 6.82698 12.4673 7.20257 12.8439L9.23935 14.8861C9.67099 15.3188 10.372 15.3188 10.8037 14.886L16.0991 9.57614C16.4748 9.19947 16.4754 8.59003 16.1005 8.21261C15.723 7.83256 15.1084 7.83204 14.7303 8.21147L10.8043 12.1508Z" fill="#FCFCFC"/>
</svg>
