<svg width="16" height="16" viewBox="0 0 16 16" fill="none" xmlns="http://www.w3.org/2000/svg">
<path d="M14.8398 6.86896L14.2998 6.26896C14.0598 6.02896 13.9398 5.66896 13.9998 5.24896L14.0598 4.46896C14.1198 3.80896 13.6998 3.20896 13.0398 3.02896L12.2598 2.84896C11.8998 2.78896 11.5998 2.54896 11.3598 2.18896L10.9398 1.46896C10.5798 0.868958 9.8598 0.628958 9.2598 0.928958L7.99981 1.52896L6.73981 0.928958C6.13981 0.628958 5.4198 0.868958 5.0598 1.46896L4.63981 2.18896C4.45981 2.48896 4.15981 2.72896 3.73981 2.84896L2.9598 3.02896C2.2998 3.14896 1.87981 3.80896 1.93981 4.46896L1.99981 5.24896C2.05981 5.66896 1.93981 6.02896 1.69981 6.26896L1.1598 6.86896C0.679805 7.34896 0.679805 8.12896 1.1598 8.60896L1.69981 9.20896C1.93981 9.50896 2.0598 9.86896 2.0598 10.229L1.99981 11.009C1.93981 11.669 2.35981 12.269 3.01981 12.449L3.79981 12.629C4.15981 12.689 4.45981 12.929 4.69981 13.289L5.11981 14.009C5.47981 14.609 6.19981 14.849 6.79981 14.549L7.51981 14.189C7.87981 14.009 8.23981 14.009 8.59981 14.189L9.31981 14.549C9.91981 14.849 10.6398 14.609 10.9998 14.009L11.4198 13.289C11.5998 12.989 11.8998 12.749 12.3198 12.629L13.0998 12.449C13.7598 12.329 14.1798 11.669 14.1198 11.009L13.9998 10.289C13.9398 9.92896 14.0598 9.56896 14.3598 9.26896L14.8998 8.66896C15.3198 8.18896 15.3198 7.40896 14.8398 6.86896ZM11.7198 5.06896L7.51981 10.469C7.39981 10.649 7.1598 10.769 6.9798 10.769H6.91981C6.73981 10.769 6.5598 10.709 6.37981 10.529L4.5798 8.72896C4.2798 8.42896 4.2798 7.94896 4.5798 7.64896C4.8798 7.34896 5.3598 7.34896 5.6598 7.64896L6.61611 8.60527C6.74536 8.73451 6.95872 8.72085 7.07043 8.57618L10.5198 4.10896C10.8198 3.86896 11.2998 3.80896 11.5998 4.04896C11.9598 4.28896 12.0198 4.76896 11.7198 5.06896Z" fill="#D89972"/>
<path d="M14.8398 6.86896L14.2998 6.26896C14.0598 6.02896 13.9398 5.66896 13.9998 5.24896L14.0598 4.46896C14.1198 3.80896 13.6998 3.20896 13.0398 3.02896L12.2598 2.84896C11.8998 2.78896 11.5998 2.54896 11.3598 2.18896L10.9398 1.46896C10.5798 0.868958 9.8598 0.628958 9.2598 0.928958L7.99981 1.52896L6.73981 0.928958C6.13981 0.628958 5.4198 0.868958 5.0598 1.46896L4.63981 2.18896C4.45981 2.48896 4.15981 2.72896 3.73981 2.84896L2.9598 3.02896C2.2998 3.14896 1.87981 3.80896 1.93981 4.46896L1.99981 5.24896C2.05981 5.66896 1.93981 6.02896 1.69981 6.26896L1.1598 6.86896C0.679805 7.34896 0.679805 8.12896 1.1598 8.60896L1.69981 9.20896C1.93981 9.50896 2.0598 9.86896 2.0598 10.229L1.99981 11.009C1.93981 11.669 2.35981 12.269 3.01981 12.449L3.79981 12.629C4.15981 12.689 4.45981 12.929 4.69981 13.289L5.11981 14.009C5.47981 14.609 6.19981 14.849 6.79981 14.549L7.51981 14.189C7.87981 14.009 8.23981 14.009 8.59981 14.189L9.31981 14.549C9.91981 14.849 10.6398 14.609 10.9998 14.009L11.4198 13.289C11.5998 12.989 11.8998 12.749 12.3198 12.629L13.0998 12.449C13.7598 12.329 14.1798 11.669 14.1198 11.009L13.9998 10.289C13.9398 9.92896 14.0598 9.56896 14.3598 9.26896L14.8998 8.66896C15.3198 8.18896 15.3198 7.40896 14.8398 6.86896ZM11.7198 5.06896L7.51981 10.469C7.39981 10.649 7.1598 10.769 6.9798 10.769H6.91981C6.73981 10.769 6.5598 10.709 6.37981 10.529L4.5798 8.72896C4.2798 8.42896 4.2798 7.94896 4.5798 7.64896C4.8798 7.34896 5.3598 7.34896 5.6598 7.64896L6.61611 8.60527C6.74536 8.73451 6.95872 8.72085 7.07043 8.57618L10.5198 4.10896C10.8198 3.86896 11.2998 3.80896 11.5998 4.04896C11.9598 4.28896 12.0198 4.76896 11.7198 5.06896Z" fill="#E3B687"/>
<path d="M7.24191 12.1682L3.45244 7.24191L5.6598 5.9998L7.62086 4.58928C8.63138 4.08401 8.83349 1.93665 9.13665 1.93665C9.4398 1.93665 12.4209 4.08401 12.9261 4.58928C12.7998 6.10507 12.5472 9.28823 12.5472 9.89454C12.5472 10.5009 9.01033 11.663 7.24191 12.1682Z" fill="#D89972"/>
<path d="M7.24191 12.1682L3.45244 7.24191L5.6598 5.9998L7.62086 4.58928C8.63138 4.08401 8.83349 1.93665 9.13665 1.93665C9.4398 1.93665 12.4209 4.08401 12.9261 4.58928C12.7998 6.10507 12.5472 9.28823 12.5472 9.89454C12.5472 10.5009 9.01033 11.663 7.24191 12.1682Z" fill="#E3B687"/>
<path d="M7.66069 7.6299C7.29034 8.00152 6.68851 8.00138 6.31833 7.62961L5.99442 7.3043C5.73509 7.04385 5.31336 7.04411 5.05434 7.30487C4.79719 7.56377 4.79761 7.98181 5.0553 8.24017L6.31855 9.50675C6.68874 9.87791 7.28996 9.87789 7.66013 9.50672L11.1591 5.99818C11.4169 5.73975 11.4173 5.32162 11.1601 5.06267C10.9011 4.80193 10.4794 4.80158 10.22 5.06189L7.66069 7.6299Z" fill="white"/>
</svg>
