<svg width="24" height="24" viewBox="0 0 24 24" fill="none" xmlns="http://www.w3.org/2000/svg">
<path d="M17.5593 10.7259C19.9689 10.7259 21.9223 8.77251 21.9223 6.36293C21.9223 3.95335 19.9689 2 17.5593 2C15.1498 2 13.1964 3.95335 13.1964 6.36293C13.1964 8.77251 15.1498 10.7259 17.5593 10.7259Z" fill="#979491"/>
<path d="M10.5788 17.0693C10.2472 17.0693 9.94179 16.886 9.74983 16.5806L4.26998 8.06417C3.98203 7.61042 3.96458 6.98216 4.22635 6.50224C4.42705 6.14448 4.74118 5.93506 5.10767 5.93506H16.0673C16.4251 5.93506 16.748 6.14448 16.9487 6.50224C17.2104 6.98216 17.193 7.61042 16.905 8.06417L11.4252 16.5893C11.2158 16.886 10.9104 17.0693 10.5788 17.0693Z" fill="#979491"/>
<path d="M16.0581 6.36282C16.5991 6.36282 16.887 7.25286 16.5205 7.82004L11.0407 16.3452C10.9185 16.5372 10.744 16.6332 10.5782 16.6332C10.4124 16.6332 10.2379 16.5372 10.1158 16.3452L4.63592 7.82004C4.27816 7.26158 4.55739 6.36282 5.09839 6.36282H16.0581ZM16.0581 5.49023H5.09839C4.58357 5.49023 4.10364 5.78691 3.83314 6.28429C3.49283 6.90382 3.51901 7.7066 3.89422 8.29124L9.37406 16.8164C9.65329 17.2527 10.0896 17.5057 10.5695 17.5057C11.0494 17.5057 11.4857 17.2527 11.7649 16.8164L17.2448 8.29124C17.62 7.7066 17.6462 6.90382 17.3059 6.28429C17.0528 5.78691 16.5816 5.49023 16.0581 5.49023Z" fill="#F2F1F0"/>
<path d="M11.4509 12.314H9.70569V20.3243H11.4509V12.314Z" fill="#979491"/>
<path d="M7.44632 19.4517H13.7115C14.1914 19.4517 14.5841 19.8443 14.5841 20.3242C14.5841 20.8042 14.1914 21.1968 13.7115 21.1968H7.44632C6.96639 21.1968 6.57373 20.8042 6.57373 20.3242C6.57373 19.8443 6.96639 19.4517 7.44632 19.4517Z" fill="#979491"/>
<path d="M5.34167 9.99268C7.95943 9.99268 7.95943 11.4586 10.5772 11.4586C13.1949 11.4586 13.1949 9.99268 15.8127 9.99268" stroke="#F2F1F0" stroke-width="0.796992" stroke-miterlimit="10"/>
</svg>
