<svg width="24" height="24" viewBox="0 0 24 24" fill="none" xmlns="http://www.w3.org/2000/svg">
<path d="M16.3598 12.8756C15.8544 12.3237 15.2056 11.8713 14.4608 11.5514C13.716 11.2314 12.8938 11.0519 12.054 11.0259C11.2129 11.051 10.3892 11.2301 9.64299 11.5501C8.89679 11.8701 8.24688 12.3229 7.74065 12.8756C6.67753 13.8991 6.06451 15.187 6.00032 16.5318C5.97826 16.7776 6.02492 17.0243 6.13674 17.253C6.24856 17.4817 6.42257 17.6863 6.64544 17.8512C7.10744 18.1333 7.6765 18.271 8.25075 18.2397C8.96501 18.2178 9.67547 18.1435 10.3737 18.0177C10.9294 17.9194 11.4938 17.8575 12.0615 17.8327C12.5816 17.858 13.0984 17.9178 13.6068 18.0115C14.987 18.2212 16.5548 18.4616 17.4625 17.8451C17.6835 17.6803 17.8562 17.4765 17.968 17.2491C18.0797 17.0217 18.1274 16.7765 18.1076 16.5318C18.0413 15.1863 17.4256 13.8983 16.3598 12.8756Z" fill="#979491"/>
<path d="M16.4351 6.12399C16.2523 5.87614 15.9977 5.66932 15.6941 5.52194C15.3904 5.37456 15.0471 5.2912 14.6948 5.2793C14.3426 5.29174 13.9996 5.37532 13.696 5.52265C13.3925 5.66998 13.1378 5.87651 12.9545 6.12399C12.525 6.67522 12.3056 7.3193 12.3244 7.97368C12.3056 8.62807 12.525 9.27215 12.9545 9.82337C13.1378 10.0709 13.3925 10.2774 13.696 10.4247C13.9996 10.572 14.3426 10.6556 14.6948 10.6681C15.0507 10.6529 15.3963 10.5649 15.7002 10.412C16.0042 10.2591 16.2568 10.0461 16.4351 9.79255C16.868 9.24259 17.0878 8.59762 17.0653 7.94285C17.0802 7.29853 16.8608 6.6652 16.4351 6.12399Z" fill="#979491"/>
<path d="M11.0489 6.12399C10.8655 5.87651 10.6109 5.66998 10.3073 5.52265C10.0038 5.37532 9.66073 5.29174 9.30854 5.2793C8.9562 5.2912 8.61292 5.37456 8.30927 5.52194C8.00562 5.66932 7.75104 5.87614 7.56821 6.12399C7.13532 6.67395 6.9156 7.31892 6.93809 7.97368C6.9156 8.62845 7.13532 9.27341 7.56821 9.82337C7.75104 10.0712 8.00562 10.278 8.30927 10.4254C8.61292 10.5728 8.9562 10.6562 9.30854 10.6681C9.66426 10.6524 10.0096 10.5641 10.3135 10.4112C10.6173 10.2584 10.87 10.0458 11.0489 9.79255C11.4784 9.24132 11.6978 8.59724 11.679 7.94285C11.6903 7.29892 11.4712 6.66643 11.0489 6.12399Z" fill="#979491"/>
<path d="M20.8982 10.3165C20.8286 10.0881 20.6945 9.87648 20.5069 9.69866C20.3192 9.52084 20.0832 9.38186 19.818 9.29301C19.6041 9.23006 19.377 9.20308 19.1502 9.21367C18.9234 9.22426 18.7015 9.27221 18.4977 9.35466C18.1787 9.48987 17.8952 9.67546 17.6635 9.90081C17.4318 10.1262 17.2564 10.3868 17.1475 10.6679C16.9389 11.1371 16.9153 11.6484 17.0799 12.1292C17.1465 12.3577 17.2786 12.5699 17.4652 12.7479C17.6518 12.926 17.8875 13.0648 18.1526 13.1527C18.3327 13.2072 18.5234 13.2344 18.7152 13.2329C18.9747 13.2298 19.2304 13.1815 19.4654 13.091C19.7852 12.9567 20.0692 12.7714 20.301 12.5459C20.5328 12.3204 20.7078 12.0593 20.8156 11.7778C21.0291 11.3099 21.058 10.7986 20.8982 10.3165Z" fill="#979491"/>
<path d="M6.85574 10.6679C6.74674 10.3868 6.57138 10.1262 6.33969 9.90081C6.108 9.67546 5.82452 9.48987 5.50548 9.35466C5.30166 9.27221 5.07977 9.22426 4.85297 9.21367C4.62617 9.20308 4.39909 9.23006 4.18523 9.29301C3.92001 9.38186 3.68399 9.52084 3.49632 9.69866C3.30864 9.87648 3.17459 10.0881 3.10502 10.3165C2.9428 10.798 2.96905 11.3092 3.18004 11.7778C3.2844 12.0572 3.45471 12.317 3.68124 12.5423C3.90777 12.7677 4.18608 12.9541 4.50029 13.091C4.73528 13.1815 4.99098 13.2298 5.25043 13.2329C5.44233 13.2344 5.63296 13.2072 5.81304 13.1527C6.07818 13.0648 6.31388 12.926 6.50049 12.7479C6.68709 12.5699 6.81918 12.3577 6.88574 12.1292C7.06244 11.6516 7.05195 11.1404 6.85574 10.6679Z" fill="#979491"/>
</svg>
