<svg width="24" height="24" viewBox="0 0 24 24" fill="none" xmlns="http://www.w3.org/2000/svg">
<g clip-path="url(#clip0_23_18729)">
<path d="M8.66638 14.5C9.35674 14.5 9.91638 13.9404 9.91638 13.25C9.91638 12.5596 9.35674 12 8.66638 12C7.97603 12 7.41638 12.5596 7.41638 13.25C7.41638 13.9404 7.97603 14.5 8.66638 14.5Z" fill="#979491"/>
<path d="M20.5675 11.1362C20.6625 10.3162 20.75 9.38199 20.75 8.73949C20.75 4.13366 15.3833 2.41699 12 2.41699C9.805 2.41699 8.22083 3.59449 7.68833 4.05199C6.02167 4.14783 3.25 5.20866 3.25 8.73949C3.25 9.39116 3.33667 10.3212 3.43083 11.137C2.58667 11.482 2 12.2987 2 13.2503C2 14.4537 2.93583 15.4328 4.11583 15.5245C5.245 18.802 8.34917 21.167 12 21.167C15.6508 21.167 18.755 18.8028 19.8842 15.5245C21.065 15.4328 22 14.4537 22 13.2503C22 12.2978 21.4133 11.4812 20.5675 11.1362ZM18.8125 14.7728C18.8125 14.7745 18.8108 14.7753 18.8108 14.777V14.7795C17.9558 17.742 15.2292 19.917 12 19.917C8.47917 19.917 5.5575 17.3312 5.0075 13.9578L5.83917 11.0487C6.58167 10.8128 8.245 10.1453 8.97333 8.73616C10.0942 9.79533 12.6058 11.0953 18.195 11.1645L18.9933 13.9537C18.9483 14.232 18.8892 14.5053 18.8125 14.7728Z" fill="#979491"/>
<path d="M15.3336 14.5C16.024 14.5 16.5836 13.9404 16.5836 13.25C16.5836 12.5596 16.024 12 15.3336 12C14.6433 12 14.0836 12.5596 14.0836 13.25C14.0836 13.9404 14.6433 14.5 15.3336 14.5Z" fill="#979491"/>
<path d="M13.6496 16.3412C12.7404 17.2204 11.2604 17.2204 10.3512 16.3412C10.1037 16.1037 9.70706 16.1087 9.46706 16.3579C9.22706 16.6062 9.23456 17.0013 9.48289 17.2421C10.1771 17.9121 11.0887 18.2463 12.0004 18.2463C12.9121 18.2463 13.8237 17.9121 14.5179 17.2421C14.7662 17.0021 14.7729 16.6062 14.5337 16.3579C14.2937 16.1087 13.8979 16.1037 13.6496 16.3412Z" fill="#979491"/>
</g>
<defs>
<clipPath id="clip0_23_18729">
<rect width="20" height="20" fill="white" transform="translate(2 2)"/>
</clipPath>
</defs>
</svg>
