<svg width="24" height="24" viewBox="0 0 24 24" fill="none" xmlns="http://www.w3.org/2000/svg">
<path d="M3.66665 16.4101V8.16012C3.66665 7.91013 3.49999 7.74346 3.24999 7.74346C2.58333 7.66013 2 8.16012 2 8.82679C2 10.9934 2 15.3267 2 17.41C2 18.0767 2.5 18.5767 3.08332 18.5767C4.99998 18.66 7.41662 18.8267 9.74994 19.41C7.83329 17.91 5.74997 17.2434 4.16665 16.9934C3.83332 16.9101 3.66665 16.6601 3.66665 16.4101Z" fill="#979491"/>
<path d="M20.3335 16.4093C20.3335 16.6593 20.1669 16.9093 19.8335 16.9926C18.2502 17.3259 16.1669 17.9926 14.2502 19.4092C16.5002 18.8259 18.9169 18.7426 20.9169 18.5759C21.5835 18.5759 22.0002 17.9926 22.0002 17.4092C22.0002 15.3259 22.0002 10.9926 22.0002 8.82599C22.0002 8.15932 21.4169 7.576 20.7502 7.65933C20.5002 7.65933 20.3335 7.82599 20.3335 8.07599V16.4093Z" fill="#979491"/>
<path d="M17.7505 4.65949C17.5005 4.74283 17.2505 4.82616 17.0005 4.90949V8.82613C17.0005 9.32612 16.4172 9.49279 16.0838 9.15946C15.9172 8.99279 15.5838 8.99279 15.3338 9.15946C15.0838 9.57612 14.5005 9.32612 14.5005 8.90946V6.07615C13.8339 6.49281 13.2505 6.90948 12.7505 7.4928C12.5839 7.65947 12.5839 7.82613 12.5839 8.07613V17.5761C12.5839 18.2427 13.3339 18.6594 13.9172 18.2427C15.2505 17.2427 16.7505 16.6594 18.0005 16.2427C18.6671 15.9927 19.1671 15.4094 19.1671 14.6594C19.1671 12.4928 19.1671 8.07613 19.1671 5.82615C19.1671 5.07616 18.5005 4.49283 17.7505 4.65949Z" fill="#979491"/>
<path d="M6.24974 4.65963C6.49974 4.74296 10.7497 6.90961 11.1664 7.4096C11.333 7.57627 11.333 7.74293 11.333 7.99293V17.4929C11.333 18.1595 10.583 18.5762 9.99971 18.1595C8.66639 17.1595 7.1664 16.5762 5.91641 16.1595C5.24975 15.9095 4.74976 15.3262 4.74976 14.5762C4.74976 12.4096 4.74976 7.99293 4.74976 5.74295C4.83309 5.07629 5.49975 4.49296 6.24974 4.65963Z" fill="#979491"/>
</svg>
