<svg width="24" height="24" viewBox="0 0 24 24" fill="none" xmlns="http://www.w3.org/2000/svg">
<path d="M7.09067 9.9761C6.97999 9.9761 6.89027 9.88638 6.89027 9.7757V9.3749C6.89027 8.38035 6.08121 7.57129 5.08666 7.57129H2.60169C2.26939 7.57129 2.00049 7.84019 2.00049 8.17249C2.00049 8.5048 2.26939 8.77369 2.60169 8.77369H5.08666C5.41836 8.77369 5.68786 9.04319 5.68786 9.3749C5.68786 9.48432 5.68786 10.4762 5.68786 10.5773C5.68786 13.4939 8.00029 15.8545 10.8892 15.967L12.992 17.3173L10.8675 18.6815C10.5867 18.5008 10.2545 18.3929 9.89628 18.3929C8.90173 18.3929 8.09267 19.202 8.09267 20.1965C8.09267 21.1911 8.90173 22.0001 9.89628 22.0001C10.679 22.0001 11.3401 21.496 11.5891 20.7977H16.6202C16.8693 21.496 17.5303 22.0001 18.3131 22.0001C19.3077 22.0001 20.1167 21.1911 20.1167 20.1965C20.1167 19.202 19.3077 18.3929 18.3131 18.3929C17.9549 18.3929 17.6227 18.5008 17.3418 18.6816L15.2174 17.3174L17.3201 15.967C20.2091 15.8545 22.5215 13.4939 22.5215 10.5773V10.3769C22.5215 10.1555 22.3421 9.9761 22.1207 9.9761H7.09067ZM15.0618 15.9881L14.1047 16.6028L13.1476 15.9881H15.0618ZM16.5392 19.5953H11.6701L14.1047 18.0319L16.5392 19.5953Z" fill="#979491"/>
<path d="M16.0286 2C15.6965 2 15.4274 2.26918 15.4274 2.6012V7.96064C15.4274 8.13918 15.6432 8.22859 15.7695 8.10234L19.9492 3.9226C20.1159 3.75596 20.104 3.48138 19.9145 3.34126C18.8236 2.53447 17.4811 2 16.0286 2Z" fill="#979491"/>
<path d="M21.2589 4.60828C21.1203 4.41773 20.8456 4.40586 20.679 4.5725L16.4992 8.75225C16.373 8.87849 16.4624 9.09435 16.6409 9.09435H22.1206C22.3419 9.09435 22.5214 8.91491 22.5214 8.69355V8.49315C22.5214 7.04105 22.0525 5.699 21.2589 4.60828Z" fill="#979491"/>
</svg>
