<svg width="24" height="24" viewBox="0 0 24 24" fill="none" xmlns="http://www.w3.org/2000/svg">
<path d="M10.125 10.75H2.625C2.28 10.75 2 11.03 2 11.375V21.375C2 21.72 2.28 22 2.625 22H10.125C10.47 22 10.75 21.72 10.75 21.375V11.375C10.75 11.03 10.47 10.75 10.125 10.75ZM5.75 17H4.5V15.75H5.75V17ZM5.75 14.5H4.5V13.25H5.75V14.5ZM8.25 17H7V15.75H8.25V17ZM8.25 14.5H7V13.25H8.25V14.5Z" fill="#979491"/>
<path d="M16.375 2H6.375C6.03 2 5.75 2.28 5.75 2.625V9.5H11.1962C11.64 9.5 12 9.84125 12 10.2638V12L13.25 10.75V7.625C13.25 7.28 13.53 7 13.875 7H17V2.625C17 2.28 16.72 2 16.375 2ZM9.5 8.25H8.25V7H9.5V8.25ZM9.5 5.75H8.25V4.5H9.5V5.75ZM12 8.25H10.75V7H12V8.25ZM12 5.75H10.75V4.5H12V5.75ZM14.5 5.75H13.25V4.5H14.5V5.75Z" fill="#979491"/>
<path d="M21.375 8.25H15.125C14.78 8.25 14.5 8.53 14.5 8.875V11.04L12.2787 13.355C12.1037 13.4712 12 13.6663 12 13.875V21.375C12 21.72 12.28 22 12.625 22H21.375C21.72 22 22 21.72 22 21.375V8.875C22 8.53 21.72 8.25 21.375 8.25ZM19.5 18.25H17V15.75H19.5V18.25ZM19.5 13.25H17V10.75H19.5V13.25Z" fill="#979491"/>
</svg>
