<svg width="24" height="24" viewBox="0 0 24 24" fill="none" xmlns="http://www.w3.org/2000/svg">
<path d="M12.5382 14.5938C12.6444 14.2975 12.5725 13.9665 12.3528 13.741L10.6336 11.976L10.6582 11.9505C11.8768 10.539 12.7956 8.94695 13.4096 7.25956C13.5933 6.75477 14.0619 6.4 14.5991 6.4H15.2409C15.7104 6.4 16.0909 6.01944 16.0909 5.55C16.0909 5.08056 15.7104 4.7 15.2409 4.7H11.2136C10.7442 4.7 10.3636 4.31944 10.3636 3.85V3.81818C10.3636 3.36631 9.99732 3 9.54545 3C9.09359 3 8.72727 3.36631 8.72727 3.81818V3.85C8.72727 4.31944 8.34671 4.7 7.87727 4.7H3.84575C3.37865 4.7 3 5.07866 3 5.54575C3 6.01284 3.37866 6.3915 3.84575 6.3915H12.1391C11.5909 8.032 10.7236 9.5875 9.54545 10.9475C8.89119 10.1947 8.33371 9.37907 7.87302 8.5222C7.73529 8.26603 7.47131 8.1 7.18046 8.1C6.63125 8.1 6.264 8.66158 6.52046 9.14723C7.04827 10.1468 7.69613 11.0967 8.45727 11.976L4.85751 15.6643C4.54278 15.9868 4.541 16.5009 4.85349 16.8256C5.18167 17.1665 5.72742 17.1665 6.0556 16.8256L9.54545 13.2L11.1693 14.887C11.5931 15.3273 12.3319 15.169 12.5382 14.5938ZM17.596 10.5696C17.4293 10.1078 16.991 9.8 16.5 9.8C16.009 9.8 15.5707 10.1078 15.404 10.5696L12.3719 18.9696C12.1909 19.471 12.5624 20 13.0954 20C13.4199 20 13.7096 19.7963 13.8193 19.4909L14.5527 17.45H18.4391L19.1796 19.4925C19.2901 19.7971 19.5794 20 19.9035 20C20.437 20 20.8089 19.4705 20.6277 18.9686L17.596 10.5696ZM15.1745 15.75L16.5 12.0695L17.8255 15.75H15.1745Z" fill="#979491"/>
</svg>
