<svg width="32" height="32" viewBox="0 0 32 32" fill="none" xmlns="http://www.w3.org/2000/svg">
<circle cx="16" cy="16" r="16" fill="#D89972"/>
<circle cx="16" cy="16" r="16" fill="#E3B687"/>
<path fill-rule="evenodd" clip-rule="evenodd" d="M24 18.113V12.0756C24 10.2606 22.9267 9 21.3333 9H10.6667C9.07333 9 8.01333 10.253 8 12.0377V18.113C8.01333 19.9508 9.07333 21.1507 10.6667 21.1507L14.9933 21.0899L18.9 23.877C19.3267 24.1276 20.2 24.0744 20.2 22.9581L20.1867 21.0899L21.3333 21.1507C22.9267 21.1507 24 19.928 24 18.113ZM15.3862 14.9306C15.1962 15.2229 15.4875 15.526 15.8362 15.526H15.8583H16.1823C16.3643 15.526 16.5222 15.3692 16.6375 15.2283C16.7212 15.1259 16.8236 15.0236 16.9399 14.9166C17.0562 14.8143 17.1771 14.698 17.2934 14.577C17.4097 14.4561 17.512 14.3026 17.5957 14.1212C17.6795 13.9398 17.7213 13.7397 17.7213 13.5258C17.7213 13.0559 17.5492 12.6838 17.205 12.4093C16.8608 12.1349 16.4468 12 15.9537 12C15.5211 12 15.1257 12.107 14.7768 12.321C14.5905 12.4353 14.4293 12.5788 14.2941 12.7508C14.0838 13.0183 14.2211 13.3907 14.5171 13.5587C14.8284 13.7353 15.1918 13.5768 15.5294 13.4295C15.5716 13.4111 15.6134 13.3928 15.6546 13.3755C15.7333 13.3423 15.8176 13.3257 15.9072 13.3257C16.2095 13.3257 16.3584 13.4467 16.3584 13.6932C16.3584 13.8235 16.2979 13.9584 16.177 14.0979C16.056 14.2375 15.9258 14.3631 15.7816 14.4793C15.6374 14.591 15.5071 14.7445 15.3862 14.9306ZM15.856 17.5867C16.0746 17.5867 16.2607 17.5122 16.4189 17.3587C16.577 17.2052 16.6561 17.0192 16.6515 16.7912C16.6515 16.5726 16.577 16.3865 16.4189 16.2284C16.2654 16.0749 16.0746 15.9958 15.856 15.9958C15.6374 15.9958 15.4467 16.0702 15.2932 16.2284C15.1397 16.3819 15.0606 16.5726 15.0606 16.7912C15.0606 17.0145 15.135 17.2052 15.2932 17.3587C15.4467 17.5076 15.6374 17.5867 15.856 17.5867Z" fill="white"/>
</svg>
