<svg width="32" height="32" viewBox="0 0 32 32" fill="none" xmlns="http://www.w3.org/2000/svg">
<circle cx="16" cy="16" r="16" fill="#D89972"/>
<circle cx="16" cy="16" r="16" fill="#E3B687"/>
<path d="M12.7926 21.9999C11.486 21.9999 10.4277 20.9416 10.4277 19.6351V16.3125C10.4277 16.1706 10.4928 16.0287 10.6169 15.9223L15.1751 11.8666C15.4885 11.5887 16.0028 11.5887 16.3221 11.8666L20.8803 15.9223C21.0044 16.0287 21.0694 16.1706 21.0694 16.3125V19.6351C21.0694 20.9416 20.0112 21.9999 18.7046 21.9999H12.7926Z" fill="white"/>
<path d="M16.3398 18.4525H15.1574C14.8322 18.4525 14.5662 18.1865 14.5662 17.8613V16.0877C14.5662 15.4374 15.0982 14.9053 15.7486 14.9053C16.3989 14.9053 16.931 15.4374 16.931 16.0877V17.8613C16.931 18.1865 16.6649 18.4525 16.3398 18.4525Z" fill="#D89972"/>
<path d="M16.3398 18.4525H15.1574C14.8322 18.4525 14.5662 18.1865 14.5662 17.8613V16.0877C14.5662 15.4374 15.0982 14.9053 15.7486 14.9053C16.3989 14.9053 16.931 15.4374 16.931 16.0877V17.8613C16.931 18.1865 16.6649 18.4525 16.3398 18.4525Z" fill="#E3B687"/>
<path d="M9.24512 15.4967L14.9503 10.3059C15.3996 9.89802 16.0913 9.89802 16.5406 10.3059L22.2516 15.4967" stroke="white" stroke-width="1.18241" stroke-miterlimit="10" stroke-linecap="round" stroke-linejoin="round"/>
</svg>
