<svg width="32" height="32" viewBox="0 0 32 32" fill="none" xmlns="http://www.w3.org/2000/svg">
<circle cx="16" cy="16" r="16" fill="#D89972"/>
<circle cx="16" cy="16" r="16" fill="#E3B687"/>
<g clip-path="url(#clip0_23_18282)">
<path fill-rule="evenodd" clip-rule="evenodd" d="M16 8C13.8273 8 13.5553 8.00933 12.702 8.048C9.79667 8.18133 8.182 9.79333 8.04867 12.7013C8.00933 13.5553 8 13.8273 8 16C8 18.1727 8.00933 18.4453 8.048 19.2987C8.18133 22.204 9.79333 23.8187 12.7013 23.952C13.5553 23.9907 13.8273 24 16 24C18.1727 24 18.4453 23.9907 19.2987 23.952C22.2013 23.8187 23.82 22.2067 23.9513 19.2987C23.9907 18.4453 24 18.1727 24 16C24 13.8273 23.9907 13.5553 23.952 12.702C23.8213 9.79933 22.2073 8.182 19.2993 8.04867C18.4453 8.00933 18.1727 8 16 8ZM20.2707 10.77C19.74 10.77 19.31 11.2 19.31 11.73C19.31 12.26 19.74 12.69 20.2707 12.69C20.8007 12.69 21.23 12.26 21.23 11.73C21.23 11.2 20.8007 10.77 20.2707 10.77ZM11.892 16C11.892 13.7313 13.7313 11.892 16 11.892C18.2687 11.892 20.108 13.7313 20.108 16C20.108 18.2693 18.2687 20.1087 16 20.1087C13.7313 20.1087 11.892 18.2687 11.892 16ZM16 18.6667C14.5273 18.6667 13.3333 17.4733 13.3333 16C13.3333 14.5273 14.5273 13.3333 16 13.3333C17.4727 13.3333 18.6667 14.5273 18.6667 16C18.6667 17.4733 17.4727 18.6667 16 18.6667Z" fill="white"/>
</g>
<defs>
<clipPath id="clip0_23_18282">
<rect width="16" height="16" fill="white" transform="translate(8 8)"/>
</clipPath>
</defs>
</svg>
