<svg width="24" height="24" viewBox="0 0 24 24" fill="none" xmlns="http://www.w3.org/2000/svg">
<path d="M7.09091 16.091C9.35026 16.091 11.1818 14.2594 11.1818 12.0001C11.1818 9.74074 9.35026 7.90918 7.09091 7.90918C4.83156 7.90918 3 9.74074 3 12.0001C3 14.2594 4.83156 16.091 7.09091 16.091Z" stroke="#979491" stroke-width="1.63636" stroke-miterlimit="10" stroke-linecap="round" stroke-linejoin="round"/>
<path d="M10.3633 9.54599C10.3633 7.25508 12.1633 5.45508 14.4542 5.45508C16.7451 5.45508 18.5451 7.25508 18.5451 9.54599C18.5451 11.8369 16.7451 13.6369 14.4542 13.6369C13.1451 13.6369 11.9178 12.9824 11.1815 12.0005" stroke="#979491" stroke-width="1.63636" stroke-miterlimit="10" stroke-linecap="round" stroke-linejoin="round"/>
<path d="M7.09082 16.9092V21.0001" stroke="#979491" stroke-width="1.63636" stroke-miterlimit="10" stroke-linecap="round" stroke-linejoin="round"/>
<path d="M20.1821 3.81836L17.7275 6.2729" stroke="#979491" stroke-width="1.63636" stroke-miterlimit="10" stroke-linecap="round" stroke-linejoin="round"/>
<path d="M5.4541 19.3633H8.72683" stroke="#979491" stroke-width="1.63636" stroke-miterlimit="10" stroke-linecap="round" stroke-linejoin="round"/>
<path d="M17.7275 3H20.1821C20.673 3 21.0003 3.32727 21.0003 3.81818V6.27273" stroke="#979491" stroke-width="1.63636" stroke-miterlimit="10" stroke-linecap="round" stroke-linejoin="round"/>
</svg>
