<svg width="24" height="24" viewBox="0 0 24 24" fill="none" xmlns="http://www.w3.org/2000/svg">
<path d="M11.473 7.54801C13.005 7.54801 14.247 6.30605 14.247 4.774C14.247 3.24196 13.005 2 11.473 2C9.94094 2 8.69897 3.24196 8.69897 4.774C8.69897 6.30605 9.94094 7.54801 11.473 7.54801Z" fill="#979491"/>
<path d="M5.65771 22.0635C5.65771 22.4026 5.93264 22.6776 6.27175 22.6776H16.795C17.1341 22.6776 17.409 22.4026 17.409 22.0635V19.8769C17.409 19.196 16.857 18.644 16.1761 18.644H6.89061C6.2097 18.644 5.65771 19.196 5.65771 19.8769V22.0635Z" fill="#979491"/>
<path d="M17.4529 15.0669H5.61428C5.27517 15.0669 5.00024 15.3418 5.00024 15.6809V17.0837C5.00024 17.4228 5.27517 17.6977 5.61428 17.6977H17.4529C17.792 17.6977 18.067 17.4228 18.067 17.0837V15.6809C18.067 15.3418 17.792 15.0669 17.4529 15.0669Z" fill="#979491"/>
<path d="M16.0941 12.4357C16.0941 9.91315 14.0524 7.87549 11.5339 7.87549C9.01089 7.87549 6.97363 9.91761 6.97363 12.4357C6.97363 13.2105 7.60166 13.8385 8.37638 13.8385H14.6914C15.4661 13.8385 16.0941 13.2105 16.0941 12.4357Z" fill="#979491"/>
</svg>
