<svg width="24" height="24" viewBox="0 0 24 24" fill="none" xmlns="http://www.w3.org/2000/svg">
<path d="M18.225 9.9751C17.85 9.6001 17.325 9.6001 16.95 9.9751L14.25 12.6751C14.1 12.8251 13.95 12.8251 13.8 12.6751C13.65 12.5251 13.65 12.3751 13.8 12.2251L17.85 8.2501C18.225 7.8751 18.225 7.3501 17.85 6.9751C17.475 6.6001 16.95 6.6001 16.575 6.9751L12.975 10.5751C12.825 10.7251 12.675 10.7251 12.525 10.5751C12.375 10.4251 12.375 10.2751 12.525 10.1251L16.575 6.0751C16.95 5.7001 16.95 5.1751 16.575 4.8001C16.2 4.4251 15.675 4.4251 15.3 4.8001L11.25 8.8501C11.175 9.0001 10.95 9.0001 10.8 8.8501C10.65 8.7001 10.65 8.5501 10.8 8.4001L14.025 5.2501C14.4 4.8751 14.4 4.3501 14.025 3.9751C13.65 3.6001 13.125 3.6001 12.75 3.9751L7.42505 9.3001L7.72505 7.2751C7.87505 6.6001 7.50005 6.0001 6.97505 5.8501C6.37505 5.7001 5.77505 6.1501 5.62505 6.7501C5.62505 6.7501 4.95005 10.2001 4.57505 11.7001C4.20005 13.2001 4.08118 15.2414 6.30005 16.6501C8.99963 18.364 11.5005 17.5002 12.45 16.8751C13.3996 16.25 18.15 11.1751 18.15 11.1751C18.6 10.8751 18.6 10.2751 18.225 9.9751Z" fill="#979491"/>
<path d="M17.3994 5.25C17.6244 5.25 17.8494 5.325 17.9994 5.55C18.3744 5.925 18.3744 6.45 17.9994 6.825L13.9494 10.875C13.7994 11.025 13.7994 11.175 13.9494 11.325C14.0244 11.4 14.0994 11.4 14.1744 11.4C14.2494 11.4 14.3244 11.4 14.3994 11.325L17.9994 7.575C18.1494 7.425 18.3744 7.275 18.5994 7.275C18.8244 7.275 19.0494 7.35 19.1994 7.575C19.5744 7.95 19.5744 8.475 19.1994 8.85L15.1494 12.9C14.9994 13.05 14.9994 13.2 15.1494 13.35C15.2244 13.425 15.2994 13.425 15.3744 13.425C15.4494 13.425 15.5244 13.425 15.5994 13.35L18.3744 10.575C18.5244 10.425 18.7494 10.275 18.9744 10.275C19.1994 10.275 19.4244 10.35 19.5744 10.575C19.9494 10.95 19.9494 11.475 19.5744 11.85C19.5744 11.85 14.5494 16.875 13.8744 17.55C13.4994 17.925 12.4254 18.5 11.0004 18.5C10.0254 18.5 8.84945 18.45 7.72445 17.25C5.92445 15.45 5.69945 13.8 5.99945 12.3C6.14945 11.55 6.37445 11.4 6.59945 11.4C6.74945 11.4 6.89945 11.55 6.89945 11.55C6.97445 11.1 6.97445 11.025 7.12445 11.025C7.19945 11.025 7.34945 11.025 7.49945 11.1C7.49945 11.1 7.49945 11.1 7.57445 11.1C8.09945 11.1 8.99945 9.075 9.07445 9.075C9.07445 9.075 9.07445 9.075 9.07445 9.15L8.92445 9.975L8.39945 11.7C8.54945 11.55 8.77445 11.4 8.99945 11.4C9.22445 11.4 9.44945 11.475 9.59945 11.7C9.89945 12 9.89945 12.375 9.74945 12.675L9.59945 12.975C9.67445 12.9 9.74945 12.75 9.82445 12.675L12.2244 9.15C12.1494 9.225 12.2244 9.375 12.2994 9.45C12.3744 9.525 12.4494 9.525 12.5244 9.525C12.5994 9.525 12.6744 9.525 12.7494 9.45L16.7994 5.4C16.8744 5.325 17.0994 5.25 17.3994 5.25ZM12.2994 9.075L12.2244 9.15C12.2244 9.15 12.2244 9.15 12.2994 9.075ZM17.3994 4.5C16.9494 4.5 16.5744 4.65 16.1994 4.95L12.2244 8.925L11.7744 8.55C11.6994 8.625 11.6244 8.7 11.5494 8.775L9.97445 11.025C9.82445 10.875 9.67445 10.8 9.44945 10.725L9.59945 10.2L9.89945 9.525V9.45V9.375C9.89945 9.3 9.97445 8.925 9.74945 8.625L9.52445 8.4H9.14945C8.69945 8.4 8.54945 8.7 8.24945 9.225C8.09945 9.45 7.79945 10.125 7.49945 10.35C7.34945 10.35 7.27445 10.275 7.19945 10.275C6.82445 10.275 6.59945 10.425 6.44945 10.65C5.84945 10.725 5.47445 11.25 5.32445 12.15C4.87445 14.175 5.54945 16.05 7.27445 17.775C8.47445 18.975 9.80037 19.25 11.0754 19.25C12.8004 19.25 13.8744 18.5 14.4744 18.075L20.1744 12.375C20.8494 11.7 20.8494 10.65 20.1744 10.05C20.0244 9.9 19.7994 9.75 19.4994 9.675L19.7244 9.45C20.0994 9.075 20.2494 8.7 20.2494 8.25C20.2494 7.8 20.0994 7.425 19.7994 7.05C19.5744 6.825 19.2744 6.675 18.8994 6.6C18.9744 6.45 18.9744 6.3 18.9744 6.075C18.9744 5.625 18.8244 5.25 18.5244 4.875C18.2244 4.65 17.7744 4.5 17.3994 4.5Z" fill="#979491"/>
</svg>
