<svg width="24" height="24" viewBox="0 0 24 24" fill="none" xmlns="http://www.w3.org/2000/svg">
<path d="M21.9654 10.3812C21.9396 9.61996 21.5016 9.19906 20.7717 9.03786C19.1228 8.66174 18.2897 7.08561 18.805 5.40202C19.0025 4.73933 18.9252 4.23783 18.367 3.85276C17.4739 3.2438 16.5464 2.67961 15.6017 2.16916C15.0177 1.85572 14.5024 1.98109 14.0902 2.51841C13.0339 3.88857 10.9641 3.9244 9.90782 2.50051C9.5643 2.03484 9.03184 1.87364 8.52515 2.13334C7.58047 2.62588 6.66155 3.1632 5.77698 3.7453C5.31323 4.05873 5.15006 4.61396 5.37335 5.16918C6.02604 6.79009 5.047 8.76922 3.1834 8.9931C2.57365 9.06474 2.15284 9.45877 2.1099 10.0946C2.02402 11.1513 1.97249 12.217 2.01543 13.2827C2.04979 14.2767 2.36754 14.5722 3.32081 14.7693C5.05559 15.1364 5.94874 16.8379 5.30464 18.5394C5.03841 19.2559 5.12429 19.7842 5.73404 20.2141C6.58426 20.8051 7.46882 21.3335 8.37915 21.8171C9.0576 22.1753 9.53853 21.9962 10.028 21.3783C11.2218 19.8738 13.0081 19.8738 14.2533 21.3424C14.3289 21.4297 14.4172 21.5046 14.5105 21.5718C14.8754 21.8346 15.4114 21.9871 15.7906 21.7454C16.6322 21.2439 17.491 20.7514 18.2983 20.1872C18.8823 19.7753 18.9338 19.2738 18.7535 18.5484C18.6332 18.0917 18.5474 17.5812 18.6161 17.1335C18.8136 15.9066 19.5436 15.1543 20.7201 14.8946C21.5617 14.7066 21.8881 14.42 21.9568 13.5424C22.0255 12.4767 21.9997 11.42 21.9654 10.3812ZM11.9947 17.2857C9.18642 17.2857 6.9106 14.9125 6.9106 11.9842C6.9106 9.05578 9.18642 6.69158 11.9947 6.69158C14.803 6.69158 17.0788 9.06473 17.0788 11.9931C17.0788 14.9215 14.803 17.2857 11.9947 17.2857Z" fill="#362614"/>
</svg>
