<svg width="24" height="24" viewBox="0 0 24 24" fill="none" xmlns="http://www.w3.org/2000/svg">
<path d="M17 20H2.9375C2.42188 20 2 19.55 2 19V17C2 16.45 2.42188 16 2.9375 16H17V20Z" fill="#979491"/>
<path d="M21.3309 19.94H18.9399V15.9551H21.3309C21.7693 15.9551 22.1279 16.4034 22.1279 16.9513V18.9438C22.1279 19.4917 21.7693 19.94 21.3309 19.94Z" fill="#979491"/>
<path d="M20.5339 9.9205C20.5339 7.676 19.6964 6.72051 18.5887 5.59375C18.6247 7.73008 15.752 9.41571 15.752 11.3087C15.752 13.7154 17.2919 14.4005 18.5887 15.1577C18.6608 13.0484 20.5339 12.165 20.5339 9.9205Z" fill="#979491"/>
<path d="M14.4551 10.3759C14.5092 8.96908 15.7519 8.3829 15.7519 6.88586C15.7519 5.38882 15.1936 4.74852 14.4551 4C14.4821 5.42489 12.564 6.55218 12.564 7.81474C12.564 9.41098 13.5906 9.87091 14.4551 10.3759Z" fill="#979491"/>
</svg>
