<svg width="17" height="17" viewBox="0 0 17 17" fill="none" xmlns="http://www.w3.org/2000/svg">
<g clip-path="url(#clip0_23_17695)">
<path fill-rule="evenodd" clip-rule="evenodd" d="M15.3606 6.22292L15.975 6.90561C16.5212 7.52003 16.5212 8.40753 16.0433 8.95368L15.4288 9.63638C15.0875 9.97772 14.951 10.3873 15.0192 10.797L15.1558 11.6162C15.224 12.3671 14.7462 13.1181 13.9952 13.2546L13.1077 13.4595C12.6298 13.596 12.2885 13.8691 12.0837 14.2104L11.6058 15.0296C11.1962 15.7123 10.3769 15.9854 9.69423 15.6441L8.875 15.2345C8.46539 15.0296 8.05577 15.0296 7.64615 15.2345L6.82692 15.6441C6.14423 15.9854 5.325 15.7123 4.91539 15.0296L4.4375 14.2104C4.16442 13.8008 3.82308 13.5277 3.41346 13.4595L2.52596 13.2546C1.775 13.0498 1.29712 12.3671 1.36539 11.6162L1.43365 10.7287C1.43365 10.3191 1.29712 9.90945 1.02404 9.56811L0.409615 8.88541C-0.136538 8.33926 -0.136538 7.45176 0.409615 6.90561L1.02404 6.22292C1.29712 5.94984 1.43365 5.54022 1.36539 5.06234L1.29712 4.17484C1.22885 3.42388 1.70673 2.67292 2.45769 2.53638L3.34519 2.33157C3.82308 2.19503 4.16442 1.92195 4.36923 1.58061L4.84712 0.761377C5.25673 0.0786846 6.07596 -0.194392 6.75866 0.146954L8.19231 0.829646L9.62596 0.146954C10.3087 -0.194392 11.1279 0.0786846 11.5375 0.761377L12.0154 1.58061C12.2885 1.99022 12.6298 2.2633 13.0394 2.33157L13.9269 2.53638C14.6779 2.74118 15.1558 3.42388 15.0875 4.17484L15.0192 5.06234C14.951 5.54022 15.0875 5.94984 15.3606 6.22292ZM6.11996 8.61206C6.45692 8.95048 7.00474 8.9506 7.34185 8.61234L10.4066 5.53711C10.7018 5.24091 11.1816 5.24131 11.4763 5.538C11.7689 5.83263 11.7685 6.30839 11.4752 6.60244L7.34134 10.7476C7.0044 11.0854 6.45713 11.0855 6.12017 10.7476L4.53016 9.15342C4.23696 8.85945 4.23647 8.38379 4.52907 8.08922C4.82378 7.79251 5.30364 7.79222 5.59871 8.08857L6.11996 8.61206Z" fill="white"/>
</g>
<defs>
<clipPath id="clip0_23_17695">
<rect width="16.3846" height="16.3846" fill="white"/>
</clipPath>
</defs>
</svg>
