<svg width="32" height="32" viewBox="0 0 32 32" fill="none" xmlns="http://www.w3.org/2000/svg">
<path d="M12.0864 19.6648L11.7415 20.678C11.6337 20.9582 11.2457 20.9798 11.1163 20.6996L8.61575 15.2241C8.52952 15.0517 8.61575 14.8577 8.78821 14.793L9.80138 14.3187L9.19778 12.896L4.88642 14.8792C4.62774 14.987 4.43373 15.2026 4.32595 15.4613L3.07565 18.5439C2.86008 19.1044 3.11876 19.7295 3.67924 19.9451L11.3966 22.9846C11.9571 23.2002 12.5822 22.9199 12.7978 22.3594L13.0133 21.7774L12.0864 19.6648Z" fill="white"/>
<path d="M25.3857 10.8994L17.0429 8.12494C16.5032 7.94267 15.8961 7.96293 15.3789 8.16544L11.8934 9.52231C10.7465 9.96785 10.2293 11.1627 10.724 12.1753L14.8392 20.7823C15.3564 21.8353 16.7281 22.3011 17.8974 21.7948L27.2746 17.6837C28.3989 17.1977 28.8487 15.9826 28.309 14.97L26.6225 11.912C26.3751 11.4462 25.9254 11.0817 25.3857 10.8994ZM25.8579 16.0434L17.9424 19.5874C17.5601 19.7697 17.1329 19.4051 17.2903 19.0406L20.2811 11.75C20.371 11.5272 20.6409 11.4057 20.8882 11.4867L24.4187 12.6613C24.5311 12.7018 24.6211 12.7828 24.6886 12.8638L26.1053 15.4561C26.1952 15.6991 26.0828 15.9421 25.8579 16.0434Z" fill="white"/>
</svg>
