<svg width="40" height="40" viewBox="0 0 40 40" fill="none" xmlns="http://www.w3.org/2000/svg">
<circle cx="20" cy="20" r="20" fill="#D89972"/>
<circle cx="20" cy="20" r="20" fill="#E3B687"/>
<path d="M20.0002 15.8333C22.3002 15.8333 24.1668 17.7 24.1668 20C24.1668 20.4584 24.0892 20.8929 23.9492 21.3036C23.903 21.4392 23.9326 21.5908 24.0339 21.6921L26.0694 23.7276C26.2001 23.8582 26.4093 23.8682 26.5473 23.7451C27.4815 22.9117 28.2555 21.9027 28.8171 20.7702C29.0577 20.285 29.0572 19.7151 28.8163 19.23C27.2034 15.9833 23.8597 13.75 19.9918 13.75C19.023 13.75 18.0887 13.8937 17.2079 14.1571C16.9574 14.2321 16.8871 14.5453 17.072 14.7302L18.3081 15.9663C18.4094 16.0676 18.561 16.0972 18.6966 16.0509C19.1072 15.9109 19.5418 15.8333 20.0002 15.8333ZM12.196 13.0292C11.9037 13.3214 11.9037 13.7952 12.196 14.0875L13.5668 15.4583L13.664 15.5555C13.8159 15.7074 13.7999 15.9578 13.6358 16.0965C12.6152 16.959 11.7757 18.0241 11.1765 19.2288C10.9348 19.7146 10.935 20.2855 11.1764 20.7714C12.7896 24.0173 16.1328 26.25 20.0002 26.25C21.2083 26.25 22.3653 26.0313 23.4305 25.6348C23.5644 25.585 23.7157 25.6155 23.8167 25.7165L24.0002 25.9L25.9122 27.8055C26.2049 28.0972 26.6784 28.0968 26.9705 27.8046C27.263 27.5121 27.263 27.0379 26.9705 26.7454L13.2543 13.0292C12.9621 12.7369 12.4882 12.7369 12.196 13.0292ZM16.0795 18.6251C16.1629 18.395 16.4548 18.3463 16.6278 18.5193L17.4257 19.3172C17.5134 19.4049 17.5474 19.5315 17.5281 19.6541C17.5102 19.768 17.5002 19.884 17.5002 20C17.5002 21.3833 18.6168 22.5 20.0002 22.5C20.1162 22.5 20.2322 22.49 20.3461 22.4721C20.4686 22.4528 20.5952 22.4868 20.6829 22.5745L21.4809 23.3724C21.6539 23.5454 21.6051 23.8373 21.3751 23.9206C20.9436 24.077 20.4831 24.1667 20.0002 24.1667C17.7002 24.1667 15.8335 22.3 15.8335 20C15.8335 19.5171 15.9232 19.0566 16.0795 18.6251ZM20.0085 17.5083C19.9536 17.5116 19.9283 17.5781 19.9672 17.617L22.3968 20.0467C22.4355 20.0853 22.5017 20.0626 22.5085 20.0083C22.5085 18.625 21.3918 17.5083 20.0085 17.5083Z" fill="white"/>
</svg>
