<svg width="22" height="22" viewBox="0 0 22 22" fill="none" xmlns="http://www.w3.org/2000/svg">
<g clip-path="url(#clip0_22_1078)">
<path d="M9.84982 17.7572L9.74155 15.6133C9.48911 15.6648 9.26386 15.721 9.07521 15.7741C8.65928 15.891 8.2353 15.7281 7.99545 15.3998C7.80511 15.1391 7.75241 14.8126 7.85077 14.5043C8.07786 13.7933 8.3966 13.1518 8.73448 12.5996L8.47566 11.897L8.66482 7.81563L9.11213 8.1144L9.22912 7.93917V7.94102L10.0684 6.80755L8.12637 5.47871C7.95164 5.35904 7.74469 5.29492 7.5327 5.29492H5.12243C4.78019 5.29492 4.45927 5.46159 4.26239 5.74173L2.2996 8.53485L0.225524 10.7593C-0.0742493 11.0807 -0.0786133 11.588 0.233077 11.898C0.559369 12.2224 1.08557 12.2092 1.39558 11.8765L3.44061 9.68326C3.5049 9.61243 3.54384 9.57835 3.59268 9.50836L4.04906 8.85578L3.87718 12.5674C3.53243 13.2763 2.77359 14.8366 2.55221 15.292C2.51796 15.3622 2.49262 15.4365 2.47667 15.5131L1.62553 19.6251C1.52012 20.1347 1.84759 20.6332 2.35717 20.7388C2.86557 20.844 3.36508 20.5177 3.47083 20.0071L4.29814 16.0102C4.55662 15.4786 5.3079 13.9338 5.5538 13.4284L7.06038 13.5068C7.31047 14.1857 7.62267 15.0332 7.85765 15.6715L8.06947 19.8638C8.10287 20.5258 8.78651 20.9352 9.37867 20.6837C9.09568 20.2641 9.02317 19.7144 9.23483 19.2132L9.84982 17.7572Z" fill="#D89972"/>
<path d="M9.84982 17.7572L9.74155 15.6133C9.48911 15.6648 9.26386 15.721 9.07521 15.7741C8.65928 15.891 8.2353 15.7281 7.99545 15.3998C7.80511 15.1391 7.75241 14.8126 7.85077 14.5043C8.07786 13.7933 8.3966 13.1518 8.73448 12.5996L8.47566 11.897L8.66482 7.81563L9.11213 8.1144L9.22912 7.93917V7.94102L10.0684 6.80755L8.12637 5.47871C7.95164 5.35904 7.74469 5.29492 7.5327 5.29492H5.12243C4.78019 5.29492 4.45927 5.46159 4.26239 5.74173L2.2996 8.53485L0.225524 10.7593C-0.0742493 11.0807 -0.0786133 11.588 0.233077 11.898C0.559369 12.2224 1.08557 12.2092 1.39558 11.8765L3.44061 9.68326C3.5049 9.61243 3.54384 9.57835 3.59268 9.50836L4.04906 8.85578L3.87718 12.5674C3.53243 13.2763 2.77359 14.8366 2.55221 15.292C2.51796 15.3622 2.49262 15.4365 2.47667 15.5131L1.62553 19.6251C1.52012 20.1347 1.84759 20.6332 2.35717 20.7388C2.86557 20.844 3.36508 20.5177 3.47083 20.0071L4.29814 16.0102C4.55662 15.4786 5.3079 13.9338 5.5538 13.4284L7.06038 13.5068C7.31047 14.1857 7.62267 15.0332 7.85765 15.6715L8.06947 19.8638C8.10287 20.5258 8.78651 20.9352 9.37867 20.6837C9.09568 20.2641 9.02317 19.7144 9.23483 19.2132L9.84982 17.7572Z" fill="#E3B687"/>
<path d="M6.54715 4.81428C7.52335 4.86497 8.37115 4.11553 8.42267 3.12406C8.47387 2.13948 7.71721 1.29974 6.73263 1.24855C5.74804 1.19735 4.90813 1.95401 4.85694 2.93859C4.80558 3.92872 5.56928 4.76342 6.54715 4.81428Z" fill="#D89972"/>
<path d="M6.54715 4.81428C7.52335 4.86497 8.37115 4.11553 8.42267 3.12406C8.47387 2.13948 7.71721 1.29974 6.73263 1.24855C5.74804 1.19735 4.90813 1.95401 4.85694 2.93859C4.80558 3.92872 5.56928 4.76342 6.54715 4.81428Z" fill="#E3B687"/>
<path d="M10.2544 15.5233L10.1549 16.2121C10.1262 16.4099 10.1641 16.6108 10.2611 16.7838L10.821 15.458C10.6242 15.4745 10.4347 15.4968 10.2544 15.5233Z" fill="#D89972"/>
<path d="M10.2544 15.5233L10.1549 16.2121C10.1262 16.4099 10.1641 16.6108 10.2611 16.7838L10.821 15.458C10.6242 15.4745 10.4347 15.4968 10.2544 15.5233Z" fill="#E3B687"/>
<path d="M13.1795 17.9014L12.3438 19.8799L12.6783 20.3662C12.9623 20.7791 13.5259 20.8815 13.9364 20.599C14.3482 20.3158 14.4524 19.7525 14.1693 19.3408L13.1795 17.9014Z" fill="#D89972"/>
<path d="M13.1795 17.9014L12.3438 19.8799L12.6783 20.3662C12.9623 20.7791 13.5259 20.8815 13.9364 20.599C14.3482 20.3158 14.4524 19.7525 14.1693 19.3408L13.1795 17.9014Z" fill="#E3B687"/>
<path d="M11.5328 15.4668L9.82882 19.5012C9.63446 19.9614 9.84997 20.4923 10.3104 20.6868C10.7698 20.8807 11.3012 20.6665 11.4959 20.2053L13.3877 15.7265C12.8141 15.5568 12.194 15.4698 11.5328 15.4668Z" fill="#D89972"/>
<path d="M11.5328 15.4668L9.82882 19.5012C9.63446 19.9614 9.84997 20.4923 10.3104 20.6868C10.7698 20.8807 11.3012 20.6665 11.4959 20.2053L13.3877 15.7265C12.8141 15.5568 12.194 15.4698 11.5328 15.4668Z" fill="#E3B687"/>
<path d="M15.1379 3.67256C15.1379 4.61955 14.3704 5.38712 13.4235 5.38712C12.4765 5.38712 11.709 4.61955 11.709 3.67256C11.709 2.72574 12.4765 1.95801 13.4235 1.95801C14.3704 1.95801 15.1379 2.72574 15.1379 3.67256Z" fill="#D89972"/>
<path d="M15.1379 3.67256C15.1379 4.61955 14.3704 5.38712 13.4235 5.38712C12.4765 5.38712 11.709 4.61955 11.709 3.67256C11.709 2.72574 12.4765 1.95801 13.4235 1.95801C14.3704 1.95801 15.1379 2.72574 15.1379 3.67256Z" fill="#E3B687"/>
<path d="M21.3148 6.81885C16.84 6.28812 13.7444 5.95545 12.3941 5.81396C11.9214 5.76444 11.4582 5.96871 11.1755 6.35073L9.25654 8.94546L9.17883 9.02871L9.06688 11.448L10.4336 9.98208C10.4538 9.96043 10.4726 9.93777 10.4902 9.9141L10.9362 9.31187C10.9113 9.85166 10.8893 10.331 10.8645 10.8713C10.8645 10.8713 9.11757 12.4118 8.39415 14.6774C8.28958 15.0049 8.5907 15.3179 8.92135 15.2249C9.52426 15.0554 10.4498 14.8588 11.4975 14.8588C12.5099 14.8588 13.6367 15.0425 14.6968 15.6118C15.1496 15.855 15.6191 15.9594 16.0909 15.9594C18.105 15.9594 20.168 14.0564 21.2272 12.9115C21.4653 12.6542 21.2389 12.243 20.8936 12.3037C20.3589 12.3977 19.6679 12.4838 18.9324 12.4838C17.4792 12.4838 15.8515 12.1476 14.9067 10.8713C14.9185 10.6152 15.0373 8.02785 15.0551 7.63962L21.1316 8.36153C21.1627 8.36522 21.1936 8.36706 21.2243 8.36706C21.6124 8.36706 21.9477 8.07669 21.9947 7.68192C22.0452 7.25576 21.7409 6.86937 21.3148 6.81885Z" fill="#D89972"/>
<path d="M21.3148 6.81885C16.84 6.28812 13.7444 5.95545 12.3941 5.81396C11.9214 5.76444 11.4582 5.96871 11.1755 6.35073L9.25654 8.94546L9.17883 9.02871L9.06688 11.448L10.4336 9.98208C10.4538 9.96043 10.4726 9.93777 10.4902 9.9141L10.9362 9.31187C10.9113 9.85166 10.8893 10.331 10.8645 10.8713C10.8645 10.8713 9.11757 12.4118 8.39415 14.6774C8.28958 15.0049 8.5907 15.3179 8.92135 15.2249C9.52426 15.0554 10.4498 14.8588 11.4975 14.8588C12.5099 14.8588 13.6367 15.0425 14.6968 15.6118C15.1496 15.855 15.6191 15.9594 16.0909 15.9594C18.105 15.9594 20.168 14.0564 21.2272 12.9115C21.4653 12.6542 21.2389 12.243 20.8936 12.3037C20.3589 12.3977 19.6679 12.4838 18.9324 12.4838C17.4792 12.4838 15.8515 12.1476 14.9067 10.8713C14.9185 10.6152 15.0373 8.02785 15.0551 7.63962L21.1316 8.36153C21.1627 8.36522 21.1936 8.36706 21.2243 8.36706C21.6124 8.36706 21.9477 8.07669 21.9947 7.68192C22.0452 7.25576 21.7409 6.86937 21.3148 6.81885Z" fill="#E3B687"/>
</g>
<defs>
<clipPath id="clip0_22_1078">
<rect width="22" height="22" fill="white"/>
</clipPath>
</defs>
</svg>
