<svg width="48" height="48" viewBox="0 0 48 48" fill="none" xmlns="http://www.w3.org/2000/svg">
<path d="M18.1296 29.497L17.6122 31.0168C17.4506 31.4371 16.8685 31.4695 16.6745 31.0491L12.9236 22.836C12.7943 22.5773 12.9236 22.2863 13.1823 22.1892L14.7021 21.4779L13.7967 19.3438L7.32963 22.3186C6.94161 22.4803 6.65059 22.8036 6.48892 23.1916L4.61348 27.8156C4.29012 28.6563 4.67815 29.594 5.51886 29.9174L17.0949 34.4766C17.9356 34.8 18.8733 34.3796 19.1967 33.5389L19.52 32.6659L18.1296 29.497Z" fill="#D89972"/>
<path d="M18.1296 29.497L17.6122 31.0168C17.4506 31.4371 16.8685 31.4695 16.6745 31.0491L12.9236 22.836C12.7943 22.5773 12.9236 22.2863 13.1823 22.1892L14.7021 21.4779L13.7967 19.3438L7.32963 22.3186C6.94161 22.4803 6.65059 22.8036 6.48892 23.1916L4.61348 27.8156C4.29012 28.6563 4.67815 29.594 5.51886 29.9174L17.0949 34.4766C17.9356 34.8 18.8733 34.3796 19.1967 33.5389L19.52 32.6659L18.1296 29.497Z" fill="#E3B687"/>
<path d="M38.0787 16.3491L25.5646 12.1874C24.7551 11.914 23.8444 11.9444 23.0686 12.2482L17.8403 14.2835C16.12 14.9518 15.3442 16.744 16.0863 18.2629L22.259 31.1734C23.0348 32.753 25.0924 33.4517 26.8464 32.6923L40.9121 26.5256C42.5987 25.7966 43.2733 23.9739 42.4637 22.455L39.9339 17.868C39.5629 17.1693 38.8883 16.6225 38.0787 16.3491ZM38.7871 24.065L26.9139 29.3811C26.3404 29.6545 25.6996 29.1077 25.9357 28.5609L30.4219 17.625C30.5568 17.2908 30.9616 17.1086 31.3326 17.2301L36.6283 18.992C36.797 19.0527 36.9319 19.1743 37.0331 19.2958L39.1581 23.1841C39.293 23.5486 39.1244 23.9132 38.7871 24.065Z" fill="#D89972"/>
<path d="M38.0787 16.3491L25.5646 12.1874C24.7551 11.914 23.8444 11.9444 23.0686 12.2482L17.8403 14.2835C16.12 14.9518 15.3442 16.744 16.0863 18.2629L22.259 31.1734C23.0348 32.753 25.0924 33.4517 26.8464 32.6923L40.9121 26.5256C42.5987 25.7966 43.2733 23.9739 42.4637 22.455L39.9339 17.868C39.5629 17.1693 38.8883 16.6225 38.0787 16.3491ZM38.7871 24.065L26.9139 29.3811C26.3404 29.6545 25.6996 29.1077 25.9357 28.5609L30.4219 17.625C30.5568 17.2908 30.9616 17.1086 31.3326 17.2301L36.6283 18.992C36.797 19.0527 36.9319 19.1743 37.0331 19.2958L39.1581 23.1841C39.293 23.5486 39.1244 23.9132 38.7871 24.065Z" fill="#E3B687"/>
</svg>
