<svg width="20" height="21" viewBox="0 0 20 21" fill="none" xmlns="http://www.w3.org/2000/svg">
<g clip-path="url(#clip0_22_1055)">
<path d="M15.7323 5.91982L11.2232 7.2007C10.9573 7.27624 10.7803 7.52733 10.7987 7.80315C10.8507 8.58646 11.095 12.2673 11.1456 13.0284C11.1646 13.3154 11.2144 13.6023 11.2936 13.881C11.8562 15.8614 13.7926 17.094 15.7847 16.8253L16.4366 19.1202L14.7457 19.6005C14.4344 19.689 14.2538 20.013 14.3422 20.3243C14.4307 20.636 14.7551 20.8161 15.0659 20.7278C15.0833 20.7228 19.5566 19.4521 19.5749 19.4469C19.8863 19.3584 20.0669 19.0344 19.9784 18.7231C19.89 18.4118 19.5659 18.2312 19.2547 18.3196L17.5638 18.8L16.9119 16.505C18.7434 15.6883 19.7479 13.6235 19.1843 11.6393C19.1052 11.3607 18.9967 11.0905 18.8621 10.8363L16.4101 6.20911C16.2807 5.96486 15.9982 5.84431 15.7323 5.91982ZM15.2926 7.26294C15.4699 7.21258 15.6582 7.29296 15.7445 7.45579L17.0793 9.97467C17.1916 10.1866 17.0871 10.4482 16.8745 10.5592C16.6756 10.6631 16.503 10.7782 16.3387 10.8877C15.9301 11.1601 15.6073 11.3752 14.9059 11.3752C14.2044 11.3752 13.8816 11.1601 13.4731 10.8877C13.1957 10.7028 12.8734 10.4881 12.4251 10.3493C12.2573 10.2974 12.1292 10.1541 12.1175 9.97883L12.0203 8.51374C12.0081 8.32987 12.126 8.16247 12.3033 8.11211L15.2926 7.26294ZM16.0396 15.5783C14.4885 16.019 12.863 15.1172 12.4209 13.5607C12.3641 13.361 12.3285 13.1558 12.3149 12.9508L12.2197 11.5183C12.4366 11.6056 12.6184 11.7263 12.823 11.8627C13.2803 12.1676 13.8495 12.5471 14.9058 12.5471C15.9621 12.5471 16.5313 12.1676 16.9886 11.8627C17.2701 11.675 17.507 11.5175 17.8517 11.4356C17.936 11.6025 18.0055 11.7781 18.057 11.9595L18.0571 11.9595C18.4986 13.5135 17.5935 15.1369 16.0396 15.5783Z" fill="#D89972"/>
<path d="M15.7323 5.91982L11.2232 7.2007C10.9573 7.27624 10.7803 7.52733 10.7987 7.80315C10.8507 8.58646 11.095 12.2673 11.1456 13.0284C11.1646 13.3154 11.2144 13.6023 11.2936 13.881C11.8562 15.8614 13.7926 17.094 15.7847 16.8253L16.4366 19.1202L14.7457 19.6005C14.4344 19.689 14.2538 20.013 14.3422 20.3243C14.4307 20.636 14.7551 20.8161 15.0659 20.7278C15.0833 20.7228 19.5566 19.4521 19.5749 19.4469C19.8863 19.3584 20.0669 19.0344 19.9784 18.7231C19.89 18.4118 19.5659 18.2312 19.2547 18.3196L17.5638 18.8L16.9119 16.505C18.7434 15.6883 19.7479 13.6235 19.1843 11.6393C19.1052 11.3607 18.9967 11.0905 18.8621 10.8363L16.4101 6.20911C16.2807 5.96486 15.9982 5.84431 15.7323 5.91982ZM15.2926 7.26294C15.4699 7.21258 15.6582 7.29296 15.7445 7.45579L17.0793 9.97467C17.1916 10.1866 17.0871 10.4482 16.8745 10.5592C16.6756 10.6631 16.503 10.7782 16.3387 10.8877C15.9301 11.1601 15.6073 11.3752 14.9059 11.3752C14.2044 11.3752 13.8816 11.1601 13.4731 10.8877C13.1957 10.7028 12.8734 10.4881 12.4251 10.3493C12.2573 10.2974 12.1292 10.1541 12.1175 9.97883L12.0203 8.51374C12.0081 8.32987 12.126 8.16247 12.3033 8.11211L15.2926 7.26294ZM16.0396 15.5783C14.4885 16.019 12.863 15.1172 12.4209 13.5607C12.3641 13.361 12.3285 13.1558 12.3149 12.9508L12.2197 11.5183C12.4366 11.6056 12.6184 11.7263 12.823 11.8627C13.2803 12.1676 13.8495 12.5471 14.9058 12.5471C15.9621 12.5471 16.5313 12.1676 16.9886 11.8627C17.2701 11.675 17.507 11.5175 17.8517 11.4356C17.936 11.6025 18.0055 11.7781 18.057 11.9595L18.0571 11.9595C18.4986 13.5135 17.5935 15.1369 16.0396 15.5783Z" fill="#E3B687"/>
<path d="M14.6294 11.9609C14.7856 12.0078 16.7257 11.2643 17.6763 10.8867L18.8481 11.9609L17.6763 15.2031L14.6294 16.4141L11.9146 14.3047V10.8867C12.7544 11.2253 14.4731 11.9141 14.6294 11.9609Z" fill="#D89972"/>
<path d="M14.6294 11.9609C14.7856 12.0078 16.7257 11.2643 17.6763 10.8867L18.8481 11.9609L17.6763 15.2031L14.6294 16.4141L11.9146 14.3047V10.8867C12.7544 11.2253 14.4731 11.9141 14.6294 11.9609Z" fill="#E3B687"/>
<path d="M14.6294 11.9609C14.7856 12.0078 16.7257 11.2643 17.6763 10.8867L18.8481 11.9609L17.6763 15.2031L14.6294 16.4141L11.9146 14.3047V10.8867C12.7544 11.2253 14.4731 11.9141 14.6294 11.9609Z" stroke="#D89972" stroke-width="0.0390625"/>
<path d="M14.6294 11.9609C14.7856 12.0078 16.7257 11.2643 17.6763 10.8867L18.8481 11.9609L17.6763 15.2031L14.6294 16.4141L11.9146 14.3047V10.8867C12.7544 11.2253 14.4731 11.9141 14.6294 11.9609Z" stroke="#E3B687" stroke-width="0.0390625"/>
<path d="M4.26823 5.92861L8.7773 7.20949C9.04323 7.28503 9.22014 7.53612 9.20182 7.81194C9.14983 8.59524 8.90546 12.276 8.85492 13.0372C8.83589 13.3242 8.78609 13.6111 8.70687 13.8898C8.1443 15.8702 6.20785 17.1028 4.21581 16.8341L3.56386 19.129L5.25478 19.6093C5.5661 19.6978 5.74672 20.0218 5.65829 20.3331C5.56977 20.6448 5.24536 20.8249 4.93459 20.7366C4.91716 20.7316 0.443873 19.4609 0.425553 19.4557C0.11423 19.3672 -0.0664301 19.0432 0.0220451 18.7319C0.110442 18.4206 0.434617 18.24 0.745745 18.3284L2.43666 18.8088L3.08864 16.5138C1.2571 15.697 0.252548 13.6323 0.816173 11.6481C0.895273 11.3695 1.00375 11.0993 1.13843 10.8451L3.59039 6.2179C3.71976 5.97364 4.00226 5.8531 4.26823 5.92861ZM4.70788 7.27173C4.53061 7.22137 4.34227 7.30175 4.25598 7.46458L2.92118 9.98346C2.80889 10.1954 2.91343 10.457 3.126 10.568C3.32488 10.6719 3.49753 10.787 3.66183 10.8965C4.07042 11.1689 4.39315 11.384 5.09462 11.384C5.79613 11.384 6.11886 11.1689 6.52741 10.8965C6.80484 10.7116 7.12709 10.4969 7.57542 10.3581C7.74317 10.3062 7.87131 10.1628 7.88294 9.98762L7.98021 8.52253C7.99242 8.33865 7.87445 8.17125 7.69718 8.1209L4.70788 7.27173ZM3.96085 15.5871C5.51204 16.0277 7.13744 15.126 7.57962 13.5695C7.63638 13.3698 7.672 13.1646 7.68564 12.9596L7.78075 11.5271C7.56388 11.6144 7.38213 11.7351 7.17748 11.8715C6.72014 12.1764 6.15097 12.5558 5.09466 12.5558C4.03839 12.5558 3.46922 12.1764 3.01188 11.8715C2.73036 11.6838 2.49345 11.5263 2.14877 11.4444C2.06447 11.6113 1.99494 11.7869 1.94346 11.9683L1.94342 11.9683C1.5019 13.5223 2.40697 15.1457 3.96085 15.5871Z" fill="#D89972"/>
<path d="M4.26823 5.92861L8.7773 7.20949C9.04323 7.28503 9.22014 7.53612 9.20182 7.81194C9.14983 8.59524 8.90546 12.276 8.85492 13.0372C8.83589 13.3242 8.78609 13.6111 8.70687 13.8898C8.1443 15.8702 6.20785 17.1028 4.21581 16.8341L3.56386 19.129L5.25478 19.6093C5.5661 19.6978 5.74672 20.0218 5.65829 20.3331C5.56977 20.6448 5.24536 20.8249 4.93459 20.7366C4.91716 20.7316 0.443873 19.4609 0.425553 19.4557C0.11423 19.3672 -0.0664301 19.0432 0.0220451 18.7319C0.110442 18.4206 0.434617 18.24 0.745745 18.3284L2.43666 18.8088L3.08864 16.5138C1.2571 15.697 0.252548 13.6323 0.816173 11.6481C0.895273 11.3695 1.00375 11.0993 1.13843 10.8451L3.59039 6.2179C3.71976 5.97364 4.00226 5.8531 4.26823 5.92861ZM4.70788 7.27173C4.53061 7.22137 4.34227 7.30175 4.25598 7.46458L2.92118 9.98346C2.80889 10.1954 2.91343 10.457 3.126 10.568C3.32488 10.6719 3.49753 10.787 3.66183 10.8965C4.07042 11.1689 4.39315 11.384 5.09462 11.384C5.79613 11.384 6.11886 11.1689 6.52741 10.8965C6.80484 10.7116 7.12709 10.4969 7.57542 10.3581C7.74317 10.3062 7.87131 10.1628 7.88294 9.98762L7.98021 8.52253C7.99242 8.33865 7.87445 8.17125 7.69718 8.1209L4.70788 7.27173ZM3.96085 15.5871C5.51204 16.0277 7.13744 15.126 7.57962 13.5695C7.63638 13.3698 7.672 13.1646 7.68564 12.9596L7.78075 11.5271C7.56388 11.6144 7.38213 11.7351 7.17748 11.8715C6.72014 12.1764 6.15097 12.5558 5.09466 12.5558C4.03839 12.5558 3.46922 12.1764 3.01188 11.8715C2.73036 11.6838 2.49345 11.5263 2.14877 11.4444C2.06447 11.6113 1.99494 11.7869 1.94346 11.9683L1.94342 11.9683C1.5019 13.5223 2.40697 15.1457 3.96085 15.5871Z" fill="#E3B687"/>
<path d="M5.37109 11.9697C5.21484 12.0166 3.27474 11.2731 2.32422 10.8955L1.15234 11.9697L2.32422 15.2119L5.37109 16.4229L8.08594 14.3135V10.8955C7.24609 11.234 5.52734 11.9229 5.37109 11.9697Z" fill="#D89972"/>
<path d="M5.37109 11.9697C5.21484 12.0166 3.27474 11.2731 2.32422 10.8955L1.15234 11.9697L2.32422 15.2119L5.37109 16.4229L8.08594 14.3135V10.8955C7.24609 11.234 5.52734 11.9229 5.37109 11.9697Z" fill="#E3B687"/>
<path d="M5.37109 11.9697C5.21484 12.0166 3.27474 11.2731 2.32422 10.8955L1.15234 11.9697L2.32422 15.2119L5.37109 16.4229L8.08594 14.3135V10.8955C7.24609 11.234 5.52734 11.9229 5.37109 11.9697Z" stroke="#D89972" stroke-width="0.0390625"/>
<path d="M5.37109 11.9697C5.21484 12.0166 3.27474 11.2731 2.32422 10.8955L1.15234 11.9697L2.32422 15.2119L5.37109 16.4229L8.08594 14.3135V10.8955C7.24609 11.234 5.52734 11.9229 5.37109 11.9697Z" stroke="#E3B687" stroke-width="0.0390625"/>
<path d="M9.41406 1.33593V3.7187C9.41406 4.04229 9.6764 4.30463 9.99999 4.30463C10.3236 4.30463 10.5859 4.04229 10.5859 3.7187V1.33593C10.5859 1.01234 10.3236 0.75 9.99999 0.75C9.6764 0.75 9.41406 1.01234 9.41406 1.33593Z" fill="#D89972"/>
<path d="M9.41406 1.33593V3.7187C9.41406 4.04229 9.6764 4.30463 9.99999 4.30463C10.3236 4.30463 10.5859 4.04229 10.5859 3.7187V1.33593C10.5859 1.01234 10.3236 0.75 9.99999 0.75C9.6764 0.75 9.41406 1.01234 9.41406 1.33593Z" fill="#E3B687"/>
<path d="M6.59368 1.38998C6.28963 1.50064 6.13283 1.83689 6.24349 2.14098L7.04508 4.34333C7.15532 4.64606 7.49062 4.80461 7.79613 4.69352C8.10018 4.58286 8.25698 4.24661 8.14632 3.94252L7.34473 1.74017C7.23403 1.43611 6.8979 1.27932 6.59368 1.38998Z" fill="#D89972"/>
<path d="M6.59368 1.38998C6.28963 1.50064 6.13283 1.83689 6.24349 2.14098L7.04508 4.34333C7.15532 4.64606 7.49062 4.80461 7.79613 4.69352C8.10018 4.58286 8.25698 4.24661 8.14632 3.94252L7.34473 1.74017C7.23403 1.43611 6.8979 1.27932 6.59368 1.38998Z" fill="#E3B687"/>
<path d="M12.9561 4.34334L13.7576 2.14099C13.8683 1.83689 13.7115 1.50068 13.4075 1.38998C13.1034 1.27932 12.7671 1.43608 12.6564 1.74017L11.8548 3.94252C11.7442 4.24662 11.901 4.58282 12.205 4.69353C12.5104 4.80466 12.8458 4.64622 12.9561 4.34334Z" fill="#D89972"/>
<path d="M12.9561 4.34334L13.7576 2.14099C13.8683 1.83689 13.7115 1.50068 13.4075 1.38998C13.1034 1.27932 12.7671 1.43608 12.6564 1.74017L11.8548 3.94252C11.7442 4.24662 11.901 4.58282 12.205 4.69353C12.5104 4.80466 12.8458 4.64622 12.9561 4.34334Z" fill="#E3B687"/>
</g>
<defs>
<clipPath id="clip0_22_1055">
<rect width="20" height="20" fill="white" transform="translate(0 0.75)"/>
</clipPath>
</defs>
</svg>
