<svg width="16" height="16" viewBox="0 0 16 16" fill="none" xmlns="http://www.w3.org/2000/svg">
<g clip-path="url(#clip0_22_1097)">
<path d="M11.7241 0.689453C10.1802 0.689588 8.75633 1.5227 8 2.86874C7.24367 1.5227 5.81977 0.689588 4.27586 0.689453C1.91447 0.689453 0 2.87978 0 5.24118C0 10.3203 5.86694 14.0845 7.55229 15.061C7.83299 15.2236 8.16701 15.2236 8.44771 15.061C10.1331 14.0845 16 10.3203 16 5.24118C16 2.87978 14.0855 0.689453 11.7241 0.689453Z" fill="#D89972"/>
<path d="M11.7241 0.689453C10.1802 0.689588 8.75633 1.5227 8 2.86874C7.24367 1.5227 5.81977 0.689588 4.27586 0.689453C1.91447 0.689453 0 2.87978 0 5.24118C0 10.3203 5.86694 14.0845 7.55229 15.061C7.83299 15.2236 8.16701 15.2236 8.44771 15.061C10.1331 14.0845 16 10.3203 16 5.24118C16 2.87978 14.0855 0.689453 11.7241 0.689453Z" fill="#E3B687"/>
</g>
<defs>
<clipPath id="clip0_22_1097">
<rect width="16" height="16" fill="white"/>
</clipPath>
</defs>
</svg>
