<svg width="23" height="22" viewBox="0 0 23 22" fill="none" xmlns="http://www.w3.org/2000/svg">
<path d="M0.00748589 9.23659C0.00144922 9.7612 0.164721 10.2588 0.454647 10.6672C0.858687 11.2364 1.58206 10.7896 1.58822 10.0916C1.59328 9.51905 1.59996 8.94614 1.60501 8.37418C1.61115 7.67828 0.894177 7.22943 0.482665 7.79065C0.181811 8.20096 0.00870542 8.704 0.00748589 9.23659Z" fill="#C7C4BD"/>
<path d="M8.99273 16.1172C8.75982 15.2513 7.97471 14.6494 7.07797 14.6494C5.76861 14.6494 4.81876 15.8961 5.16628 17.1585L6.01753 20.2508C6.24588 21.1056 7.02082 21.6997 7.90564 21.6983C8.53519 21.7058 9.13083 21.4138 9.51053 20.9117C9.89391 20.4339 10.0121 19.7957 9.82518 19.2124L8.99273 16.1172Z" fill="#C7C4BD"/>
<path d="M1.60986 6.9098H1.64174V6.87793C1.64174 6.9098 1.64174 6.9098 1.60986 6.9098Z" fill="#C7C4BD"/>
<path d="M2.52637 7.15905V11.6276C2.5604 12.7848 3.50858 13.705 4.66618 13.7045H8.39344C9.498 13.7045 10.3934 12.8091 10.3934 11.7045V7.20801C10.3934 6.10344 9.49801 5.20801 8.39344 5.20801H4.66618C3.53333 5.20801 2.52637 6.0262 2.52637 7.15905Z" fill="#C7C4BD"/>
<path d="M11.334 12.4771C11.334 13.2949 11.8319 14.0303 12.5912 14.3341L20.2345 17.3914C21.5482 17.9169 22.9773 16.9494 22.9773 15.5345V3.25388C22.9773 1.83895 21.5482 0.871432 20.2345 1.39693L12.5912 4.45426C11.8319 4.75799 11.334 5.49341 11.334 6.31121V12.4771Z" fill="#C7C4BD"/>
</svg>
