<svg width="24" height="24" viewBox="0 0 24 24" fill="none" xmlns="http://www.w3.org/2000/svg">
<path d="M7.83222 15.4459C6.95722 15.8521 5.99238 16.1177 5.08222 16.5748C4.92206 16.6568 4.72284 16.5943 4.64081 16.4341C3.74238 14.7115 4.22675 12.5357 5.85175 11.3716C6.37519 10.9966 7.10175 11.1138 7.48066 11.6373C8.25019 12.7115 8.41816 14.0591 8.008 15.2505C7.97675 15.3404 7.91425 15.4107 7.83222 15.4459Z" fill="#E3B687"/>
<path d="M13.2025 19.4882C11.3509 20.2812 9.22203 19.5546 8.22203 17.8671C8.12047 17.6952 8.19468 17.4726 8.37828 17.3944C9.32359 16.9882 10.1517 16.4921 10.8861 15.7733C10.9681 15.6913 11.0892 15.6601 11.2025 15.6874C12.3314 15.996 13.3197 16.7968 13.8158 17.9569C14.0697 18.5468 13.7962 19.2343 13.2025 19.4882Z" fill="#E3B687"/>
<path d="M11.6992 13.3123C11.7656 13.3631 11.7851 13.4529 11.746 13.5271C11.4062 14.1599 10.9882 14.7224 10.4999 15.2146C8.26947 17.449 5.73432 16.9763 4.07025 19.0427C3.49994 19.7537 3.12494 20.6521 2.96088 21.7185C2.93354 21.9021 2.75775 22.0271 2.58197 21.9959C2.39838 21.9685 2.27729 21.7967 2.30463 21.617C2.48822 20.4334 2.9101 19.4295 3.55463 18.6248C5.36713 16.367 7.93354 16.8435 10.0312 14.742C10.4882 14.2849 10.8749 13.7576 11.1874 13.1599C11.2382 13.0662 11.3593 13.0427 11.4413 13.1092C11.5078 13.1638 11.5976 13.2342 11.6992 13.3123Z" fill="#E3B687"/>
<path d="M18.6724 4.62908C18.3325 4.58611 17.9927 4.55877 17.6528 4.55877C17.5356 4.55877 17.4302 4.49627 17.3677 4.39471C17.1958 4.10174 17.0044 3.82049 16.7974 3.55096C16.6489 3.35564 16.7544 3.06658 16.9966 3.01971C17.895 2.85174 18.7192 3.30877 19.0278 4.19158C19.1138 4.42596 18.9185 4.66424 18.6724 4.62908Z" fill="#E3B687"/>
<path d="M16.2152 4.68366C13.4886 5.19928 11.3363 7.24616 10.8988 9.95319C10.8402 10.3126 10.3324 10.336 10.2465 9.98444C9.95349 8.77741 10.1293 7.48835 10.766 6.39069L11.9769 4.29303C12.1918 3.92194 12.3441 3.5235 12.4379 3.10944C12.6761 2.00788 14.0707 1.61725 14.8363 2.45319C14.9574 2.59381 15.7269 3.18756 16.43 4.17194C16.5668 4.36335 16.4535 4.64069 16.2152 4.68366Z" fill="#E3B687"/>
<path d="M21.2422 8.19179C20.9258 8.48085 20.6602 8.81289 20.4453 9.18398L19.2344 11.2816C17.6836 13.9652 14.0508 14.559 11.7266 12.473C11.668 12.4223 11.6328 12.3559 11.6211 12.2855C11.0977 9.81679 12.0781 7.57851 14.0156 6.29335C16.6758 4.53164 19.457 5.42226 20.3711 5.71523C20.5078 5.7582 20.5781 5.78164 20.6641 5.79726C21.7344 6.09023 22.0625 7.4457 21.2422 8.19179Z" fill="#E3B687"/>
</svg>
