<svg width="25" height="22" viewBox="0 0 25 22" fill="none" xmlns="http://www.w3.org/2000/svg">
<path fill-rule="evenodd" clip-rule="evenodd" d="M24.3202 13.5903V4.33441C24.3202 1.94861 22.3716 0 19.9858 0H4.33441C1.94861 0 0 1.94861 0 4.33441V13.5903C0 15.9761 1.94861 17.9247 4.33441 17.9247H10.8173L16.6756 21.5971C17.3127 21.9219 18.6242 21.8594 18.6242 20.3855L18.5993 17.9247H19.9858C22.3716 17.9247 24.3202 15.9761 24.3202 13.5903ZM7.16358 7.86774C7.1326 4.90009 10.395 3.80205 12.16 7.04744C13.7419 3.6331 17.1919 4.90009 17.1565 7.86774C17.1343 9.93594 15.8302 10.8994 14.1955 12.1071C13.5491 12.5846 12.851 13.1004 12.16 13.7377C11.4661 13.0988 10.7672 12.5825 10.121 12.1052C8.4842 10.896 7.18579 9.9369 7.16358 7.86774Z" fill="#C7C4BD"/>
</svg>
