<svg width="20" height="20" viewBox="0 0 20 20" fill="none" xmlns="http://www.w3.org/2000/svg">
<path d="M9.11744 10.7472C8.72652 11.1395 8.09125 11.1394 7.70051 10.7469L7.09605 10.1399C6.75387 9.79622 6.19743 9.79655 5.85567 10.1406C5.51637 10.4822 5.51693 11.0338 5.85694 11.3747L7.70075 13.2234C8.09149 13.6151 8.72612 13.6151 9.11685 13.2233L13.9106 8.41651C14.2507 8.07553 14.2512 7.52383 13.9118 7.18216C13.5701 6.83812 13.0137 6.83766 12.6714 7.18113L9.11744 10.7472Z" fill="#D89972"/>
<path d="M9.11744 10.7472C8.72652 11.1395 8.09125 11.1394 7.70051 10.7469L7.09605 10.1399C6.75387 9.79622 6.19743 9.79655 5.85567 10.1406C5.51637 10.4822 5.51693 11.0338 5.85694 11.3747L7.70075 13.2234C8.09149 13.6151 8.72612 13.6151 9.11685 13.2233L13.9106 8.41651C14.2507 8.07553 14.2512 7.52383 13.9118 7.18216C13.5701 6.83812 13.0137 6.83766 12.6714 7.18113L9.11744 10.7472Z" fill="#E3B687"/>
<g clip-path="url(#clip0_22_1121)">
<path d="M18.55 8.58644L17.875 7.83644C17.575 7.53644 17.425 7.08644 17.5 6.56144L17.575 5.58644C17.65 4.76144 17.125 4.01144 16.3 3.78644L15.325 3.56144C14.875 3.48644 14.5 3.18644 14.2 2.73644L13.675 1.83644C13.225 1.08644 12.325 0.786442 11.575 1.16144L10 1.91144L8.425 1.16144C7.675 0.786442 6.775 1.08644 6.325 1.83644L5.8 2.73644C5.575 3.11144 5.2 3.41144 4.675 3.56144L3.7 3.78644C2.875 3.93644 2.35 4.76144 2.425 5.58644L2.5 6.56144C2.575 7.08644 2.425 7.53644 2.125 7.83644L1.45 8.58644C0.85 9.18644 0.85 10.1614 1.45 10.7614L2.125 11.5114C2.425 11.8864 2.575 12.3364 2.575 12.7864L2.5 13.7614C2.425 14.5864 2.95 15.3364 3.775 15.5614L4.75 15.7864C5.2 15.8614 5.575 16.1614 5.875 16.6114L6.4 17.5114C6.85 18.2614 7.75 18.5614 8.5 18.1864L9.4 17.7364C9.85 17.5114 10.3 17.5114 10.75 17.7364L11.65 18.1864C12.4 18.5614 13.3 18.2614 13.75 17.5114L14.275 16.6114C14.5 16.2364 14.875 15.9364 15.4 15.7864L16.375 15.5614C17.2 15.4114 17.725 14.5864 17.65 13.7614L17.5 12.8614C17.425 12.4114 17.575 11.9614 17.95 11.5864L18.625 10.8364C19.15 10.2364 19.15 9.26144 18.55 8.58644ZM14.65 6.33644L9.4 13.0864C9.25 13.3114 8.95 13.4614 8.725 13.4614H8.65C8.425 13.4614 8.2 13.3864 7.975 13.1614L5.725 10.9114C5.35 10.5364 5.35 9.93644 5.725 9.56144C6.1 9.18644 6.7 9.18644 7.075 9.56144L8.27039 10.7568C8.43194 10.9184 8.69865 10.9013 8.83828 10.7205L13.15 5.13644C13.525 4.83644 14.125 4.76144 14.5 5.06144C14.95 5.36144 15.025 5.96144 14.65 6.33644Z" fill="#D89972"/>
<path d="M18.55 8.58644L17.875 7.83644C17.575 7.53644 17.425 7.08644 17.5 6.56144L17.575 5.58644C17.65 4.76144 17.125 4.01144 16.3 3.78644L15.325 3.56144C14.875 3.48644 14.5 3.18644 14.2 2.73644L13.675 1.83644C13.225 1.08644 12.325 0.786442 11.575 1.16144L10 1.91144L8.425 1.16144C7.675 0.786442 6.775 1.08644 6.325 1.83644L5.8 2.73644C5.575 3.11144 5.2 3.41144 4.675 3.56144L3.7 3.78644C2.875 3.93644 2.35 4.76144 2.425 5.58644L2.5 6.56144C2.575 7.08644 2.425 7.53644 2.125 7.83644L1.45 8.58644C0.85 9.18644 0.85 10.1614 1.45 10.7614L2.125 11.5114C2.425 11.8864 2.575 12.3364 2.575 12.7864L2.5 13.7614C2.425 14.5864 2.95 15.3364 3.775 15.5614L4.75 15.7864C5.2 15.8614 5.575 16.1614 5.875 16.6114L6.4 17.5114C6.85 18.2614 7.75 18.5614 8.5 18.1864L9.4 17.7364C9.85 17.5114 10.3 17.5114 10.75 17.7364L11.65 18.1864C12.4 18.5614 13.3 18.2614 13.75 17.5114L14.275 16.6114C14.5 16.2364 14.875 15.9364 15.4 15.7864L16.375 15.5614C17.2 15.4114 17.725 14.5864 17.65 13.7614L17.5 12.8614C17.425 12.4114 17.575 11.9614 17.95 11.5864L18.625 10.8364C19.15 10.2364 19.15 9.26144 18.55 8.58644ZM14.65 6.33644L9.4 13.0864C9.25 13.3114 8.95 13.4614 8.725 13.4614H8.65C8.425 13.4614 8.2 13.3864 7.975 13.1614L5.725 10.9114C5.35 10.5364 5.35 9.93644 5.725 9.56144C6.1 9.18644 6.7 9.18644 7.075 9.56144L8.27039 10.7568C8.43194 10.9184 8.69865 10.9013 8.83828 10.7205L13.15 5.13644C13.525 4.83644 14.125 4.76144 14.5 5.06144C14.95 5.36144 15.025 5.96144 14.65 6.33644Z" fill="#E3B687"/>
<path d="M9.05263 15.2105L4.31579 9.05263V8.57895L9.52632 5.73684C10.7895 5.10526 11.0421 2.42105 11.4211 2.42105C11.8 2.42105 15.5263 5.10526 16.1579 5.73684C16 7.63158 15.6842 11.6105 15.6842 12.3684C15.6842 13.1263 11.2632 14.5789 9.05263 15.2105Z" fill="#D89972"/>
<path d="M9.05263 15.2105L4.31579 9.05263V8.57895L9.52632 5.73684C10.7895 5.10526 11.0421 2.42105 11.4211 2.42105C11.8 2.42105 15.5263 5.10526 16.1579 5.73684C16 7.63158 15.6842 11.6105 15.6842 12.3684C15.6842 13.1263 11.2632 14.5789 9.05263 15.2105Z" fill="#E3B687"/>
<path d="M9.40815 9.70579C9.0378 10.0774 8.43597 10.0773 8.06579 9.70549L7.49315 9.13038C7.16898 8.80481 6.64182 8.80514 6.31805 9.13109C5.9966 9.45471 5.99714 9.97726 6.31925 10.3002L8.06602 12.0516C8.4362 12.4227 9.03742 12.4227 9.40759 12.0515L13.949 7.49773C14.2712 7.17469 14.2717 6.65203 13.9502 6.32834C13.6265 6.00241 13.0994 6.00197 12.7751 6.32737L9.40815 9.70579Z" fill="white"/>
</g>
<defs>
<clipPath id="clip0_22_1121">
<rect width="18" height="18" fill="white" transform="translate(1 1)"/>
</clipPath>
</defs>
</svg>
