<svg width="24" height="24" viewBox="0 0 24 24" fill="none" xmlns="http://www.w3.org/2000/svg">
<g clip-path="url(#clip0_22_367)">
<path d="M20.484 3.51344C15.797 -1.17214 8.19902 -1.17101 3.51344 3.51602C-1.17214 8.20305 -1.17101 15.801 3.51602 20.4866C8.20305 25.1722 15.801 25.171 20.4866 20.484C22.7369 18.233 24.0007 15.1803 24 11.9974C23.9994 8.8151 22.7346 5.76335 20.484 3.51344Z" fill="#E3B687"/>
<path d="M12.6647 6.06502L11.3354 6.06502L11.3354 11.3353L6.06507 11.3353L6.06507 12.6647L11.3354 12.6647L11.3354 17.935L12.6647 17.935L12.6647 12.6647L17.935 12.6647L17.935 11.3353L12.6647 11.3353L12.6647 6.06502Z" fill="white"/>
</g>
<defs>
<clipPath id="clip0_22_367">
<rect width="24" height="24" fill="white"/>
</clipPath>
</defs>
</svg>
